<?xml version="1.0" encoding="UTF-8" standalone="no"?>
<svg xmlns="http://www.w3.org/2000/svg" contentScriptType="application/ecmascript" contentStyleType="text/css"
     height="618px" preserveAspectRatio="none" style="width:527px;height:618px;" version="1.1" viewBox="0 0 527 618"
     width="527px" zoomAndPan="magnify">
    <defs>
        <filter height="300%" id="f1iiweujzupwac" width="300%" x="-1" y="-1">
            <feGaussianBlur result="blurOut" stdDeviation="2.0"/>
            <feColorMatrix in="blurOut" result="blurOut2" type="matrix"
                           values="0 0 0 0 0 0 0 0 0 0 0 0 0 0 0 0 0 0 .4 0"/>
            <feOffset dx="4.0" dy="4.0" in="blurOut2" result="blurOut3"/>
            <feBlend in="SourceGraphic" in2="blurOut3" mode="normal"/>
        </filter>
    </defs>
    <g><!--MD5=[3dcf69e4e87a10af00fce8354034ba4c]
cluster presentation-->
        <polygon fill="#FFFFFF" filter="url(#f1iiweujzupwac)"
                 points="16,6,123,6,130,28.2969,510,28.2969,510,266,16,266,16,6"
                 style="stroke:#000000;stroke-width:1.5;"/>
        <line style="stroke:#000000;stroke-width:1.5;" x1="16" x2="130" y1="28.2969" y2="28.2969"/>
        <text fill="#000000" font-family="sans-serif" font-size="14" font-weight="bold" lengthAdjust="spacing"
              textLength="101" x="20" y="20.9951">presentation
        </text><!--MD5=[e2a75efa8a0f57c2afae8bf75386f79c]
cluster views-->
        <polygon fill="#FFFFFF" filter="url(#f1iiweujzupwac)"
                 points="197,65,249,65,256,87.2969,321,87.2969,321,205,197,205,197,65"
                 style="stroke:#000000;stroke-width:1.5;"/>
        <line style="stroke:#000000;stroke-width:1.5;" x1="197" x2="256" y1="87.2969" y2="87.2969"/>
        <text fill="#000000" font-family="sans-serif" font-size="14" font-weight="bold" lengthAdjust="spacing"
              textLength="46" x="201" y="79.9951">views
        </text><!--MD5=[27f772719433d509ddbc20ff768eba08]
cluster domain-->
        <polygon fill="#FFFFFF" filter="url(#f1iiweujzupwac)"
                 points="182,306,245,306,252,328.2969,496.5,328.2969,496.5,534,182,534,182,306"
                 style="stroke:#000000;stroke-width:1.5;"/>
        <line style="stroke:#000000;stroke-width:1.5;" x1="182" x2="252" y1="328.2969" y2="328.2969"/>
        <text fill="#000000" font-family="sans-serif" font-size="14" font-weight="bold" lengthAdjust="spacing"
              textLength="57" x="186" y="320.9951">domain
        </text>
        <polygon fill="#FFFFFF" filter="url(#f1iiweujzupwac)"
                 points="221,108.5,283,108.5,290,130.7969,297,130.7969,297,161.0938,221,161.0938,221,108.5"
                 style="stroke:#000000;stroke-width:1.5;"/>
        <line style="stroke:#000000;stroke-width:1.5;" x1="221" x2="290" y1="130.7969" y2="130.7969"/>
        <text fill="#000000" font-family="sans-serif" font-size="14" font-weight="bold" lengthAdjust="spacing"
              textLength="56" x="225" y="123.4951">modals
        </text>
        <polygon fill="#FFFFFF" filter="url(#f1iiweujzupwac)"
                 points="40,169.5,132,169.5,139,191.7969,146,191.7969,146,222.0938,40,222.0938,40,169.5"
                 style="stroke:#000000;stroke-width:1.5;"/>
        <line style="stroke:#000000;stroke-width:1.5;" x1="40" x2="139" y1="191.7969" y2="191.7969"/>
        <text fill="#000000" font-family="sans-serif" font-size="14" font-weight="bold" lengthAdjust="spacing"
              textLength="86" x="44" y="184.4951">controllers
        </text>
        <polygon fill="#FFFFFF" filter="url(#f1iiweujzupwac)"
                 points="372,175.5,472,175.5,479,197.7969,486,197.7969,486,228.0938,372,228.0938,372,175.5"
                 style="stroke:#000000;stroke-width:1.5;"/>
        <line style="stroke:#000000;stroke-width:1.5;" x1="372" x2="479" y1="197.7969" y2="197.7969"/>
        <text fill="#000000" font-family="sans-serif" font-size="14" font-weight="bold" lengthAdjust="spacing"
              textLength="94" x="376" y="190.4951">viewmodels
        </text>
        <polygon fill="#FFFFFF" filter="url(#f1iiweujzupwac)"
                 points="390.5,437.5,453.5,437.5,460.5,459.7969,467.5,459.7969,467.5,490.0938,390.5,490.0938,390.5,437.5"
                 style="stroke:#000000;stroke-width:1.5;"/>
        <line style="stroke:#000000;stroke-width:1.5;" x1="390.5" x2="460.5" y1="459.7969" y2="459.7969"/>
        <text fill="#000000" font-family="sans-serif" font-size="14" font-weight="bold" lengthAdjust="spacing"
              textLength="57" x="394.5" y="452.4951">models
        </text>
        <polygon fill="#FFFFFF" filter="url(#f1iiweujzupwac)"
                 points="206,349.5,298,349.5,305,371.7969,312,371.7969,312,402.0938,206,402.0938,206,349.5"
                 style="stroke:#000000;stroke-width:1.5;"/>
        <line style="stroke:#000000;stroke-width:1.5;" x1="206" x2="305" y1="371.7969" y2="371.7969"/>
        <text fill="#000000" font-family="sans-serif" font-size="14" font-weight="bold" lengthAdjust="spacing"
              textLength="86" x="210" y="364.4951">controllers
        </text>
        <polygon fill="#FFFFFF" filter="url(#f1iiweujzupwac)"
                 points="219,437.5,285,437.5,292,459.7969,299,459.7969,299,490.0938,219,490.0938,219,437.5"
                 style="stroke:#000000;stroke-width:1.5;"/>
        <line style="stroke:#000000;stroke-width:1.5;" x1="219" x2="292" y1="459.7969" y2="459.7969"/>
        <text fill="#000000" font-family="sans-serif" font-size="14" font-weight="bold" lengthAdjust="spacing"
              textLength="60" x="223" y="452.4951">helpers
        </text>
        <polygon fill="#FFFFFF" filter="url(#f1iiweujzupwac)"
                 points="385.5,349.5,458.5,349.5,465.5,371.7969,472.5,371.7969,472.5,402.0938,385.5,402.0938,385.5,349.5"
                 style="stroke:#000000;stroke-width:1.5;"/>
        <line style="stroke:#000000;stroke-width:1.5;" x1="385.5" x2="465.5" y1="371.7969" y2="371.7969"/>
        <text fill="#000000" font-family="sans-serif" font-size="14" font-weight="bold" lengthAdjust="spacing"
              textLength="67" x="389.5" y="364.4951">provider
        </text>
        <polygon fill="#FFFFFF" filter="url(#f1iiweujzupwac)"
                 points="402,558.5,442,558.5,449,580.7969,456,580.7969,456,611.0938,402,611.0938,402,558.5"
                 style="stroke:#000000;stroke-width:1.5;"/>
        <line style="stroke:#000000;stroke-width:1.5;" x1="402" x2="449" y1="580.7969" y2="580.7969"/>
        <text fill="#000000" font-family="sans-serif" font-size="14" font-weight="bold" lengthAdjust="spacing"
              textLength="34" x="406" y="573.4951">data
        </text><!--MD5=[3325846acdd529a61052094a12ab7870]
link controllers to views-->
        <path
            d="M151.38,196.35 C163.01,196.42 175.3687,196.495 187.3942,196.5683 C190.4006,196.5866 193.3861,196.6048 196.3342,196.6228 C196.5185,196.6239 196.7026,196.6251 196.8866,196.6262 "
            fill="none" id="controllers-views" style="stroke:#A80036;stroke-width:1.0;stroke-dasharray:7.0,7.0;"/>
        <polygon fill="#A80036"
                 points="196.8866,196.6262,187.9112,192.5713,191.8867,196.5957,187.8623,200.5712,196.8866,196.6262"
                 style="stroke:#A80036;stroke-width:1.0;"/>
        <polygon fill="#A80036"
                 points="146.34,196.32,155.317,200.3714,151.3399,196.3486,155.3627,192.3715,146.34,196.32"
                 style="stroke:#A80036;stroke-width:1.0;"/><!--MD5=[416bde2db8e0c22a698616f7e31bc0fe]
link controllers to viewModels-->
        <path
            d="M146.05,209.79 C152.72,211.11 159.49,212.24 166,213 C241.49,221.79 261.14,217.57 337,213 C346.6,212.42 356.75,211.5 366.64,210.44 "
            fill="none" id="controllers-to-viewModels"
            style="stroke:#A80036;stroke-width:1.0;stroke-dasharray:7.0,7.0;"/>
        <polygon fill="#A80036"
                 points="371.79,209.87,362.4005,206.8972,366.8211,210.4269,363.2915,214.8475,371.79,209.87"
                 style="stroke:#A80036;stroke-width:1.0;"/><!--MD5=[2423d63f453725dfa375a2b8d6f7710c]
link views to viewModels-->
        <path
            d="M321.2519,198.8207 C321.4343,198.8261 321.6169,198.8315 321.7996,198.837 C324.723,198.924 327.685,199.0121 330.6702,199.1009 C342.6106,199.4562 354.92,199.8225 366.6,200.17 "
            fill="none" id="views-to-viewModels" style="stroke:#A80036;stroke-width:1.0;stroke-dasharray:7.0,7.0;"/>
        <polygon fill="#A80036"
                 points="371.66,200.32,362.7905,196.0385,366.6625,200.1625,362.5385,204.0345,371.66,200.32"
                 style="stroke:#A80036;stroke-width:1.0;"/><!--MD5=[14a58e7b76d8f246c0f647709d539c05]
link domainControllers to provider-->
        <path d="M312.24,376 C333.99,376 359.09,376 380.34,376 " fill="none" id="domainControllers-to-provider"
              style="stroke:#A80036;stroke-width:1.0;stroke-dasharray:7.0,7.0;"/>
        <polygon fill="#A80036" points="385.37,376,376.37,372,380.37,376,376.37,380,385.37,376"
                 style="stroke:#A80036;stroke-width:1.0;"/><!--MD5=[924d59620f163edbfabdbd1aaa7c19a7]
link domainControllers to models-->
        <path d="M310.86,402.64 C334.85,415.21 363.14,430.03 385.91,441.95 " fill="none"
              id="domainControllers-to-models" style="stroke:#A80036;stroke-width:1.0;stroke-dasharray:7.0,7.0;"/>
        <polygon fill="#A80036" points="390.39,444.3,384.2661,436.5865,385.9586,441.9842,380.5609,443.6767,390.39,444.3"
                 style="stroke:#A80036;stroke-width:1.0;"/><!--MD5=[c77268ed4ecd252cfedb1ec23c5cc117]
link presentation to domain-->
        <path
            d="M93.5988,266.1936 C93.588,266.5029 93.5772,266.8202 93.5667,267.1455 C93.3976,272.3503 93.2686,279.5878 93.3841,288.3675 C93.615,305.9269 94.8237,329.655 98.645,355.6275 C106.2875,407.5725 124.38,468.495 166,507 C169.7713,510.4888 174.0073,513.4066 178.5368,515.8411 C179.6692,516.4498 180.8199,517.0282 181.9862,517.5778 "
            fill="none" id="presentation-to-domain" style="stroke:#A80036;stroke-width:1.0;stroke-dasharray:7.0,7.0;"/>
        <polygon fill="#A80036"
                 points="181.9862,517.5778,175.5499,510.1231,177.4632,515.4465,172.1398,517.3598,181.9862,517.5778"
                 style="stroke:#A80036;stroke-width:1.0;"/><!--MD5=[29a9dfd8f9ad9788c6ffa05d34122601]
link domain to data-->
        <path
            d="M282.9239,534.0505 C283.256,534.1672 283.5908,534.2848 283.9284,534.4034 C286.6287,535.3519 289.5028,536.3614 292.5212,537.4217 C298.558,539.5421 305.1722,541.8653 312.1287,544.3087 C339.955,554.0825 373.26,565.78 397.01,574.12 "
            fill="none" id="domain-to-data" style="stroke:#A80036;stroke-width:1.0;stroke-dasharray:7.0,7.0;"/>
        <polygon fill="#A80036"
                 points="401.76,575.79,394.5958,569.0317,397.0429,574.1319,391.9428,576.579,401.76,575.79"
                 style="stroke:#A80036;stroke-width:1.0;"/><!--MD5=[f7b3898840217a49e7ed415f3fe8ab94]
@startuml
'https://plantuml.com/class-diagram

left to right direction 
package presentation {

    package views {
        package modals {
        }
    }

    package controllers {
    }

    package viewmodels as viewModels {}

    controllers <.-> views
    controllers .-> viewModels
    views .-> viewModels
}

package domain {
    package models {
    }
    package controllers as domainControllers {
    }
    package helpers {
    }

    package provider {
    }

    domainControllers .-> provider
    domainControllers .-> models
}

package data {
}

presentation .-> domain
domain .-> data

@enduml

@startuml

left to right direction 
package presentation {

    package views {
        package modals {
        }
    }

    package controllers {
    }

    package viewmodels as viewModels {}

    controllers <.-> views
    controllers .-> viewModels
    views .-> viewModels
}

package domain {
    package models {
    }
    package controllers as domainControllers {
    }
    package helpers {
    }

    package provider {
    }

    domainControllers .-> provider
    domainControllers .-> models
}

package data {
}

presentation .-> domain
domain .-> data

@enduml

PlantUML version 1.2021.5(Sun Apr 25 11:20:28 UTC 2021)
(GPL source distribution)
Java Runtime: OpenJDK Runtime Environment
JVM: OpenJDK 64-Bit Server VM
Default Encoding: UTF-8
Language: en
Country: null
-->
    </g>
</svg>