<?xml version="1.0" encoding="UTF-8" standalone="no"?><svg xmlns="http://www.w3.org/2000/svg" xmlns:xlink="http://www.w3.org/1999/xlink" contentScriptType="application/ecmascript" contentStyleType="text/css" height="782px" preserveAspectRatio="none" style="width:999px;height:782px;" version="1.1" viewBox="0 0 999 782" width="999px" zoomAndPan="magnify"><defs><filter height="300%" id="f116pbdv56uzll" width="300%" x="-1" y="-1"><feGaussianBlur result="blurOut" stdDeviation="2.0"/><feColorMatrix in="blurOut" result="blurOut2" type="matrix" values="0 0 0 0 0 0 0 0 0 0 0 0 0 0 0 0 0 0 .4 0"/><feOffset dx="4.0" dy="4.0" in="blurOut2" result="blurOut3"/><feBlend in="SourceGraphic" in2="blurOut3" mode="normal"/></filter></defs><g><!--MD5=[27f772719433d509ddbc20ff768eba08]
cluster domain--><polygon fill="#FFFFFF" filter="url(#f116pbdv56uzll)" points="16,6,79,6,86,28.2969,982,28.2969,982,775,16,775,16,6" style="stroke:#000000;stroke-width:1.5;"/><line style="stroke:#000000;stroke-width:1.5;" x1="16" x2="86" y1="28.2969" y2="28.2969"/><text fill="#000000" font-family="sans-serif" font-size="14" font-weight="bold" lengthAdjust="spacing" textLength="57" x="20" y="20.9951">domain</text><!--MD5=[09e3160644ea82bed9dc2bfdc7bfe5c8]
class Producer--><rect codeLine="5" fill="#FEFECE" filter="url(#f116pbdv56uzll)" height="137.6328" id="Producer" style="stroke:#A80036;stroke-width:1.5;" width="225" x="436.5" y="41"/><ellipse cx="516.25" cy="57" fill="#ADD1B2" rx="11" ry="11" style="stroke:#A80036;stroke-width:1.0;"/><path d="M519.2188,62.6406 Q518.6406,62.9375 518,63.0781 Q517.3594,63.2344 516.6563,63.2344 Q514.1563,63.2344 512.8281,61.5938 Q511.5156,59.9375 511.5156,56.8125 Q511.5156,53.6875 512.8281,52.0313 Q514.1563,50.375 516.6563,50.375 Q517.3594,50.375 518,50.5313 Q518.6563,50.6875 519.2188,50.9844 L519.2188,53.7031 Q518.5938,53.125 518,52.8594 Q517.4063,52.5781 516.7813,52.5781 Q515.4375,52.5781 514.75,53.6563 Q514.0625,54.7188 514.0625,56.8125 Q514.0625,58.9063 514.75,59.9844 Q515.4375,61.0469 516.7813,61.0469 Q517.4063,61.0469 518,60.7813 Q518.5938,60.5 519.2188,59.9219 L519.2188,62.6406 Z " fill="#000000"/><text fill="#000000" font-family="sans-serif" font-size="12" lengthAdjust="spacing" textLength="57" x="536.75" y="61.1543">Producer</text><line style="stroke:#A80036;stroke-width:1.5;" x1="437.5" x2="660.5" y1="73" y2="73"/><rect fill="none" height="6" style="stroke:#C82930;stroke-width:1.0;" width="6" x="444.5" y="81"/><text fill="#000000" font-family="sans-serif" font-size="11" lengthAdjust="spacing" textLength="77" x="456.5" y="87.2104">email : String</text><rect fill="none" height="6" style="stroke:#C82930;stroke-width:1.0;" width="6" x="444.5" y="93.8047"/><text fill="#000000" font-family="sans-serif" font-size="11" lengthAdjust="spacing" textLength="78" x="456.5" y="100.0151">name : String</text><rect fill="none" height="6" style="stroke:#C82930;stroke-width:1.0;" width="6" x="444.5" y="106.6094"/><text fill="#000000" font-family="sans-serif" font-size="11" lengthAdjust="spacing" textLength="81" x="456.5" y="112.8198">image : String</text><line style="stroke:#A80036;stroke-width:1.0;" x1="437.5" x2="660.5" y1="119.4141" y2="119.4141"/><ellipse cx="447.5" cy="130.4141" fill="#84BE84" rx="3" ry="3" style="stroke:#038048;stroke-width:1.0;"/><text fill="#000000" font-family="sans-serif" font-size="11" lengthAdjust="spacing" textLength="105" x="456.5" y="133.6245">getName() : String</text><ellipse cx="447.5" cy="143.2188" fill="#84BE84" rx="3" ry="3" style="stroke:#038048;stroke-width:1.0;"/><text fill="#000000" font-family="sans-serif" font-size="11" lengthAdjust="spacing" textLength="103" x="456.5" y="146.4292">getEmail() : String</text><ellipse cx="447.5" cy="156.0234" fill="#84BE84" rx="3" ry="3" style="stroke:#038048;stroke-width:1.0;"/><text fill="#000000" font-family="sans-serif" font-size="11" lengthAdjust="spacing" textLength="103" x="456.5" y="159.2339">getImage(): String</text><ellipse cx="447.5" cy="168.8281" fill="#84BE84" rx="3" ry="3" style="stroke:#038048;stroke-width:1.0;"/><text fill="#000000" font-family="sans-serif" font-size="11" lengthAdjust="spacing" textLength="199" x="456.5" y="172.0386">validatePassword(String) : boolean</text><!--MD5=[682cceb3213bcbb637d022cca5daab3c]
class CompanyAdministrator--><rect codeLine="16" fill="#FEFECE" filter="url(#f116pbdv56uzll)" height="60.8047" id="CompanyAdministrator" style="stroke:#A80036;stroke-width:1.5;" width="173" x="228.5" y="79.5"/><ellipse cx="243.5" cy="95.5" fill="#ADD1B2" rx="11" ry="11" style="stroke:#A80036;stroke-width:1.0;"/><path d="M246.4688,101.1406 Q245.8906,101.4375 245.25,101.5781 Q244.6094,101.7344 243.9063,101.7344 Q241.4063,101.7344 240.0781,100.0938 Q238.7656,98.4375 238.7656,95.3125 Q238.7656,92.1875 240.0781,90.5313 Q241.4063,88.875 243.9063,88.875 Q244.6094,88.875 245.25,89.0313 Q245.9063,89.1875 246.4688,89.4844 L246.4688,92.2031 Q245.8438,91.625 245.25,91.3594 Q244.6563,91.0781 244.0313,91.0781 Q242.6875,91.0781 242,92.1563 Q241.3125,93.2188 241.3125,95.3125 Q241.3125,97.4063 242,98.4844 Q242.6875,99.5469 244.0313,99.5469 Q244.6563,99.5469 245.25,99.2813 Q245.8438,99 246.4688,98.4219 L246.4688,101.1406 Z " fill="#000000"/><text fill="#000000" font-family="sans-serif" font-size="12" lengthAdjust="spacing" textLength="141" x="257.5" y="99.6543">CompanyAdministrator</text><line style="stroke:#A80036;stroke-width:1.5;" x1="229.5" x2="400.5" y1="111.5" y2="111.5"/><rect fill="none" height="6" style="stroke:#C82930;stroke-width:1.0;" width="6" x="236.5" y="119.5"/><text fill="#000000" font-family="sans-serif" font-size="11" lengthAdjust="spacing" textLength="112" x="248.5" y="125.7104">company: Company</text><line style="stroke:#A80036;stroke-width:1.5;" x1="229.5" x2="400.5" y1="132.3047" y2="132.3047"/><!--MD5=[9e0344aee5137892075360975b58a39b]
class SystemAdministrator--><rect codeLine="20" fill="#FEFECE" filter="url(#f116pbdv56uzll)" height="48" id="SystemAdministrator" style="stroke:#A80036;stroke-width:1.5;" width="161" x="32.5" y="86"/><ellipse cx="47.5" cy="102" fill="#ADD1B2" rx="11" ry="11" style="stroke:#A80036;stroke-width:1.0;"/><path d="M50.4688,107.6406 Q49.8906,107.9375 49.25,108.0781 Q48.6094,108.2344 47.9063,108.2344 Q45.4063,108.2344 44.0781,106.5938 Q42.7656,104.9375 42.7656,101.8125 Q42.7656,98.6875 44.0781,97.0313 Q45.4063,95.375 47.9063,95.375 Q48.6094,95.375 49.25,95.5313 Q49.9063,95.6875 50.4688,95.9844 L50.4688,98.7031 Q49.8438,98.125 49.25,97.8594 Q48.6563,97.5781 48.0313,97.5781 Q46.6875,97.5781 46,98.6563 Q45.3125,99.7188 45.3125,101.8125 Q45.3125,103.9063 46,104.9844 Q46.6875,106.0469 48.0313,106.0469 Q48.6563,106.0469 49.25,105.7813 Q49.8438,105.5 50.4688,104.9219 L50.4688,107.6406 Z " fill="#000000"/><text fill="#000000" font-family="sans-serif" font-size="12" lengthAdjust="spacing" textLength="129" x="61.5" y="106.1543">SystemAdministrator</text><line style="stroke:#A80036;stroke-width:1.5;" x1="33.5" x2="192.5" y1="118" y2="118"/><line style="stroke:#A80036;stroke-width:1.5;" x1="33.5" x2="192.5" y1="126" y2="126"/><!--MD5=[02e4b9b7573f1156f41e60aa5b4e25a4]
class Company--><rect codeLine="24" fill="#FEFECE" filter="url(#f116pbdv56uzll)" height="124.8281" id="Company" style="stroke:#A80036;stroke-width:1.5;" width="147" x="332.5" y="256"/><ellipse cx="373.6" cy="272" fill="#ADD1B2" rx="11" ry="11" style="stroke:#A80036;stroke-width:1.0;"/><path d="M376.5688,277.6406 Q375.9906,277.9375 375.35,278.0781 Q374.7094,278.2344 374.0063,278.2344 Q371.5063,278.2344 370.1781,276.5938 Q368.8656,274.9375 368.8656,271.8125 Q368.8656,268.6875 370.1781,267.0313 Q371.5063,265.375 374.0063,265.375 Q374.7094,265.375 375.35,265.5313 Q376.0063,265.6875 376.5688,265.9844 L376.5688,268.7031 Q375.9438,268.125 375.35,267.8594 Q374.7563,267.5781 374.1313,267.5781 Q372.7875,267.5781 372.1,268.6563 Q371.4125,269.7188 371.4125,271.8125 Q371.4125,273.9063 372.1,274.9844 Q372.7875,276.0469 374.1313,276.0469 Q374.7563,276.0469 375.35,275.7813 Q375.9438,275.5 376.5688,274.9219 L376.5688,277.6406 Z " fill="#000000"/><text fill="#000000" font-family="sans-serif" font-size="12" lengthAdjust="spacing" textLength="57" x="393.4" y="276.1543">Company</text><line style="stroke:#A80036;stroke-width:1.5;" x1="333.5" x2="478.5" y1="288" y2="288"/><rect fill="none" height="6" style="stroke:#C82930;stroke-width:1.0;" width="6" x="340.5" y="296"/><text fill="#000000" font-family="sans-serif" font-size="11" lengthAdjust="spacing" textLength="60" x="352.5" y="302.2104">regNo : int</text><rect fill="none" height="6" style="stroke:#C82930;stroke-width:1.0;" width="6" x="340.5" y="308.8047"/><text fill="#000000" font-family="sans-serif" font-size="11" lengthAdjust="spacing" textLength="78" x="352.5" y="315.0151">name : String</text><rect fill="none" height="6" style="stroke:#C82930;stroke-width:1.0;" width="6" x="340.5" y="321.6094"/><text fill="#000000" font-family="sans-serif" font-size="11" lengthAdjust="spacing" textLength="97" x="352.5" y="327.8198">manager : String</text><line style="stroke:#A80036;stroke-width:1.0;" x1="333.5" x2="478.5" y1="334.4141" y2="334.4141"/><ellipse cx="343.5" cy="345.4141" fill="#84BE84" rx="3" ry="3" style="stroke:#038048;stroke-width:1.0;"/><text fill="#000000" font-family="sans-serif" font-size="11" lengthAdjust="spacing" textLength="88" x="352.5" y="348.6245">getRegNo() : int</text><ellipse cx="343.5" cy="358.2188" fill="#84BE84" rx="3" ry="3" style="stroke:#038048;stroke-width:1.0;"/><text fill="#000000" font-family="sans-serif" font-size="11" lengthAdjust="spacing" textLength="105" x="352.5" y="361.4292">getName() : String</text><ellipse cx="343.5" cy="371.0234" fill="#84BE84" rx="3" ry="3" style="stroke:#038048;stroke-width:1.0;"/><text fill="#000000" font-family="sans-serif" font-size="11" lengthAdjust="spacing" textLength="121" x="352.5" y="374.2339">getManager() : String</text><!--MD5=[1e4e6ac1845d89d680410515caa0c0ac]
class Channel--><rect codeLine="34" fill="#FEFECE" filter="url(#f116pbdv56uzll)" height="99.2188" id="Channel" style="stroke:#A80036;stroke-width:1.5;" width="149" x="148.5" y="269"/><ellipse cx="193.25" cy="285" fill="#ADD1B2" rx="11" ry="11" style="stroke:#A80036;stroke-width:1.0;"/><path d="M196.2188,290.6406 Q195.6406,290.9375 195,291.0781 Q194.3594,291.2344 193.6563,291.2344 Q191.1563,291.2344 189.8281,289.5938 Q188.5156,287.9375 188.5156,284.8125 Q188.5156,281.6875 189.8281,280.0313 Q191.1563,278.375 193.6563,278.375 Q194.3594,278.375 195,278.5313 Q195.6563,278.6875 196.2188,278.9844 L196.2188,281.7031 Q195.5938,281.125 195,280.8594 Q194.4063,280.5781 193.7813,280.5781 Q192.4375,280.5781 191.75,281.6563 Q191.0625,282.7188 191.0625,284.8125 Q191.0625,286.9063 191.75,287.9844 Q192.4375,289.0469 193.7813,289.0469 Q194.4063,289.0469 195,288.7813 Q195.5938,288.5 196.2188,287.9219 L196.2188,290.6406 Z " fill="#000000"/><text fill="#000000" font-family="sans-serif" font-size="12" lengthAdjust="spacing" textLength="51" x="213.75" y="289.1543">Channel</text><line style="stroke:#A80036;stroke-width:1.5;" x1="149.5" x2="296.5" y1="301" y2="301"/><rect fill="none" height="6" style="stroke:#C82930;stroke-width:1.0;" width="6" x="156.5" y="309"/><text fill="#000000" font-family="sans-serif" font-size="11" lengthAdjust="spacing" textLength="74" x="168.5" y="315.2104">name: String</text><rect fill="none" height="6" style="stroke:#C82930;stroke-width:1.0;" width="6" x="156.5" y="321.8047"/><text fill="#000000" font-family="sans-serif" font-size="11" lengthAdjust="spacing" textLength="91" x="168.5" y="328.0151">category: String</text><line style="stroke:#A80036;stroke-width:1.0;" x1="149.5" x2="296.5" y1="334.6094" y2="334.6094"/><ellipse cx="159.5" cy="345.6094" fill="#84BE84" rx="3" ry="3" style="stroke:#038048;stroke-width:1.0;"/><text fill="#000000" font-family="sans-serif" font-size="11" lengthAdjust="spacing" textLength="105" x="168.5" y="348.8198">getName() : String</text><ellipse cx="159.5" cy="358.4141" fill="#84BE84" rx="3" ry="3" style="stroke:#038048;stroke-width:1.0;"/><text fill="#000000" font-family="sans-serif" font-size="11" lengthAdjust="spacing" textLength="123" x="168.5" y="361.6245">getCategory() : String</text><!--MD5=[175f95e045c1a44aed0b30df3abe0e5c]
class Program--><rect codeLine="42" fill="#FEFECE" filter="url(#f116pbdv56uzll)" height="99.2188" id="Program" style="stroke:#A80036;stroke-width:1.5;" width="122" x="331" y="458"/><ellipse cx="362.65" cy="474" fill="#ADD1B2" rx="11" ry="11" style="stroke:#A80036;stroke-width:1.0;"/><path d="M365.6188,479.6406 Q365.0406,479.9375 364.4,480.0781 Q363.7594,480.2344 363.0563,480.2344 Q360.5563,480.2344 359.2281,478.5938 Q357.9156,476.9375 357.9156,473.8125 Q357.9156,470.6875 359.2281,469.0313 Q360.5563,467.375 363.0563,467.375 Q363.7594,467.375 364.4,467.5313 Q365.0563,467.6875 365.6188,467.9844 L365.6188,470.7031 Q364.9938,470.125 364.4,469.8594 Q363.8063,469.5781 363.1813,469.5781 Q361.8375,469.5781 361.15,470.6563 Q360.4625,471.7188 360.4625,473.8125 Q360.4625,475.9063 361.15,476.9844 Q361.8375,478.0469 363.1813,478.0469 Q363.8063,478.0469 364.4,477.7813 Q364.9938,477.5 365.6188,476.9219 L365.6188,479.6406 Z " fill="#000000"/><text fill="#000000" font-family="sans-serif" font-size="12" lengthAdjust="spacing" textLength="53" x="380.35" y="478.1543">Program</text><line style="stroke:#A80036;stroke-width:1.5;" x1="332" x2="452" y1="490" y2="490"/><rect fill="none" height="6" style="stroke:#C82930;stroke-width:1.0;" width="6" x="339" y="498"/><text fill="#000000" font-family="sans-serif" font-size="11" lengthAdjust="spacing" textLength="63" x="351" y="504.2104">title: String</text><rect fill="none" height="6" style="stroke:#C82930;stroke-width:1.0;" width="6" x="339" y="510.8047"/><text fill="#000000" font-family="sans-serif" font-size="11" lengthAdjust="spacing" textLength="87" x="351" y="517.0151">startTime: long</text><rect fill="none" height="6" style="stroke:#C82930;stroke-width:1.0;" width="6" x="339" y="523.6094"/><text fill="#000000" font-family="sans-serif" font-size="11" lengthAdjust="spacing" textLength="81" x="351" y="529.8198">endTime: long</text><line style="stroke:#A80036;stroke-width:1.0;" x1="332" x2="452" y1="536.4141" y2="536.4141"/><ellipse cx="342" cy="547.4141" fill="#84BE84" rx="3" ry="3" style="stroke:#038048;stroke-width:1.0;"/><text fill="#000000" font-family="sans-serif" font-size="11" lengthAdjust="spacing" textLength="96" x="351" y="550.6245">getTitle() : String</text><!--MD5=[a6db4508d99df11b61134feed24d590d]
class CreditRole--><rect codeLine="50" fill="#FEFECE" filter="url(#f116pbdv56uzll)" height="60.8047" id="CreditRole" style="stroke:#A80036;stroke-width:1.5;" width="96" x="556" y="666"/><ellipse cx="571" cy="682" fill="#ADD1B2" rx="11" ry="11" style="stroke:#A80036;stroke-width:1.0;"/><path d="M573.9688,687.6406 Q573.3906,687.9375 572.75,688.0781 Q572.1094,688.2344 571.4063,688.2344 Q568.9063,688.2344 567.5781,686.5938 Q566.2656,684.9375 566.2656,681.8125 Q566.2656,678.6875 567.5781,677.0313 Q568.9063,675.375 571.4063,675.375 Q572.1094,675.375 572.75,675.5313 Q573.4063,675.6875 573.9688,675.9844 L573.9688,678.7031 Q573.3438,678.125 572.75,677.8594 Q572.1563,677.5781 571.5313,677.5781 Q570.1875,677.5781 569.5,678.6563 Q568.8125,679.7188 568.8125,681.8125 Q568.8125,683.9063 569.5,684.9844 Q570.1875,686.0469 571.5313,686.0469 Q572.1563,686.0469 572.75,685.7813 Q573.3438,685.5 573.9688,684.9219 L573.9688,687.6406 Z " fill="#000000"/><text fill="#000000" font-family="sans-serif" font-size="12" lengthAdjust="spacing" textLength="64" x="585" y="686.1543">CreditRole</text><line style="stroke:#A80036;stroke-width:1.5;" x1="557" x2="651" y1="698" y2="698"/><rect fill="none" height="6" style="stroke:#C82930;stroke-width:1.0;" width="6" x="564" y="706"/><text fill="#000000" font-family="sans-serif" font-size="11" lengthAdjust="spacing" textLength="67" x="576" y="712.2104">title : String</text><line style="stroke:#A80036;stroke-width:1.5;" x1="557" x2="651" y1="718.8047" y2="718.8047"/><!--MD5=[a818d4fdb263ce6d3ad23111dcf8be33]
class Credit--><rect codeLine="55" fill="#FEFECE" filter="url(#f116pbdv56uzll)" height="124.8281" id="Credit" style="stroke:#A80036;stroke-width:1.5;" width="179" x="302.5" y="634"/><ellipse cx="369.25" cy="650" fill="#ADD1B2" rx="11" ry="11" style="stroke:#A80036;stroke-width:1.0;"/><path d="M372.2188,655.6406 Q371.6406,655.9375 371,656.0781 Q370.3594,656.2344 369.6563,656.2344 Q367.1563,656.2344 365.8281,654.5938 Q364.5156,652.9375 364.5156,649.8125 Q364.5156,646.6875 365.8281,645.0313 Q367.1563,643.375 369.6563,643.375 Q370.3594,643.375 371,643.5313 Q371.6563,643.6875 372.2188,643.9844 L372.2188,646.7031 Q371.5938,646.125 371,645.8594 Q370.4063,645.5781 369.7813,645.5781 Q368.4375,645.5781 367.75,646.6563 Q367.0625,647.7188 367.0625,649.8125 Q367.0625,651.9063 367.75,652.9844 Q368.4375,654.0469 369.7813,654.0469 Q370.4063,654.0469 371,653.7813 Q371.5938,653.5 372.2188,652.9219 L372.2188,655.6406 Z " fill="#000000"/><text fill="#000000" font-family="sans-serif" font-size="12" lengthAdjust="spacing" textLength="37" x="389.75" y="654.1543">Credit</text><line style="stroke:#A80036;stroke-width:1.5;" x1="303.5" x2="480.5" y1="666" y2="666"/><rect fill="none" height="6" style="stroke:#C82930;stroke-width:1.0;" width="6" x="310.5" y="674"/><text fill="#000000" font-family="sans-serif" font-size="11" lengthAdjust="spacing" textLength="78" x="322.5" y="680.2104">name : String</text><rect fill="none" height="6" style="stroke:#C82930;stroke-width:1.0;" width="6" x="310.5" y="686.8047"/><text fill="#000000" font-family="sans-serif" font-size="11" lengthAdjust="spacing" textLength="92" x="322.5" y="693.0151">role : CreditRole</text><rect fill="none" height="6" style="stroke:#C82930;stroke-width:1.0;" width="6" x="310.5" y="699.6094"/><text fill="#000000" font-family="sans-serif" font-size="11" lengthAdjust="spacing" textLength="126" x="322.5" y="705.8198">date : OffsetDateTime</text><line style="stroke:#A80036;stroke-width:1.0;" x1="303.5" x2="480.5" y1="712.4141" y2="712.4141"/><ellipse cx="313.5" cy="723.4141" fill="#84BE84" rx="3" ry="3" style="stroke:#038048;stroke-width:1.0;"/><text fill="#000000" font-family="sans-serif" font-size="11" lengthAdjust="spacing" textLength="105" x="322.5" y="726.6245">getName() : String</text><ellipse cx="313.5" cy="736.2188" fill="#84BE84" rx="3" ry="3" style="stroke:#038048;stroke-width:1.0;"/><text fill="#000000" font-family="sans-serif" font-size="11" lengthAdjust="spacing" textLength="120" x="322.5" y="739.4292">getRole() : CreditRole</text><ellipse cx="313.5" cy="749.0234" fill="#84BE84" rx="3" ry="3" style="stroke:#038048;stroke-width:1.0;"/><text fill="#000000" font-family="sans-serif" font-size="11" lengthAdjust="spacing" textLength="153" x="322.5" y="752.2339">getDate() : OffsetDateTime</text><!--MD5=[9878be2e161685c2af42b541dee0842e]
class AuthController--><rect codeLine="66" fill="#FEFECE" filter="url(#f116pbdv56uzll)" height="73.6094" id="AuthController" style="stroke:#A80036;stroke-width:1.5;" width="166" x="800" y="73"/><ellipse cx="834.8" cy="89" fill="#ADD1B2" rx="11" ry="11" style="stroke:#A80036;stroke-width:1.0;"/><path d="M837.7688,94.6406 Q837.1906,94.9375 836.55,95.0781 Q835.9094,95.2344 835.2063,95.2344 Q832.7063,95.2344 831.3781,93.5938 Q830.0656,91.9375 830.0656,88.8125 Q830.0656,85.6875 831.3781,84.0313 Q832.7063,82.375 835.2063,82.375 Q835.9094,82.375 836.55,82.5313 Q837.2063,82.6875 837.7688,82.9844 L837.7688,85.7031 Q837.1438,85.125 836.55,84.8594 Q835.9563,84.5781 835.3313,84.5781 Q833.9875,84.5781 833.3,85.6563 Q832.6125,86.7188 832.6125,88.8125 Q832.6125,90.9063 833.3,91.9844 Q833.9875,93.0469 835.3313,93.0469 Q835.9563,93.0469 836.55,92.7813 Q837.1438,92.5 837.7688,91.9219 L837.7688,94.6406 Z " fill="#000000"/><text fill="#000000" font-family="sans-serif" font-size="12" lengthAdjust="spacing" textLength="90" x="853.2" y="93.1543">AuthController</text><line style="stroke:#A80036;stroke-width:1.5;" x1="801" x2="965" y1="105" y2="105"/><line style="stroke:#A80036;stroke-width:1.0;" x1="801" x2="965" y1="113" y2="113"/><ellipse cx="811" cy="124" fill="#84BE84" rx="3" ry="3" style="stroke:#038048;stroke-width:1.0;"/><text fill="#000000" font-family="sans-serif" font-size="11" lengthAdjust="spacing" textLength="140" x="820" y="127.2104">resetPassword() : String</text><ellipse cx="811" cy="136.8047" fill="#84BE84" rx="3" ry="3" style="stroke:#038048;stroke-width:1.0;"/><text fill="#000000" font-family="sans-serif" font-size="11" lengthAdjust="spacing" textLength="105" x="820" y="140.0151">signIn() : Producer</text><!--MD5=[62db8e4c2d9e0408f5650e8d9a685ff5]
class DB--><rect codeLine="73" fill="#FEFECE" filter="url(#f116pbdv56uzll)" height="48" id="DB" style="stroke:#A80036;stroke-width:1.5;" width="49" x="634.5" y="294.5"/><ellipse cx="649.5" cy="310.5" fill="#ADD1B2" rx="11" ry="11" style="stroke:#A80036;stroke-width:1.0;"/><path d="M652.4688,316.1406 Q651.8906,316.4375 651.25,316.5781 Q650.6094,316.7344 649.9063,316.7344 Q647.4063,316.7344 646.0781,315.0938 Q644.7656,313.4375 644.7656,310.3125 Q644.7656,307.1875 646.0781,305.5313 Q647.4063,303.875 649.9063,303.875 Q650.6094,303.875 651.25,304.0313 Q651.9063,304.1875 652.4688,304.4844 L652.4688,307.2031 Q651.8438,306.625 651.25,306.3594 Q650.6563,306.0781 650.0313,306.0781 Q648.6875,306.0781 648,307.1563 Q647.3125,308.2188 647.3125,310.3125 Q647.3125,312.4063 648,313.4844 Q648.6875,314.5469 650.0313,314.5469 Q650.6563,314.5469 651.25,314.2813 Q651.8438,314 652.4688,313.4219 L652.4688,316.1406 Z " fill="#000000"/><text fill="#000000" font-family="sans-serif" font-size="12" lengthAdjust="spacing" textLength="17" x="663.5" y="314.6543">DB</text><line style="stroke:#A80036;stroke-width:1.5;" x1="635.5" x2="682.5" y1="326.5" y2="326.5"/><line style="stroke:#A80036;stroke-width:1.5;" x1="635.5" x2="682.5" y1="334.5" y2="334.5"/><!--MD5=[09ce52be0ee7de43c61b6e2d59bf108b]
class Person--><rect codeLine="76" fill="#FEFECE" filter="url(#f116pbdv56uzll)" height="48" id="Person" style="stroke:#A80036;stroke-width:1.5;" width="76" x="191" y="672.5"/><ellipse cx="206" cy="688.5" fill="#ADD1B2" rx="11" ry="11" style="stroke:#A80036;stroke-width:1.0;"/><path d="M208.9688,694.1406 Q208.3906,694.4375 207.75,694.5781 Q207.1094,694.7344 206.4063,694.7344 Q203.9063,694.7344 202.5781,693.0938 Q201.2656,691.4375 201.2656,688.3125 Q201.2656,685.1875 202.5781,683.5313 Q203.9063,681.875 206.4063,681.875 Q207.1094,681.875 207.75,682.0313 Q208.4063,682.1875 208.9688,682.4844 L208.9688,685.2031 Q208.3438,684.625 207.75,684.3594 Q207.1563,684.0781 206.5313,684.0781 Q205.1875,684.0781 204.5,685.1563 Q203.8125,686.2188 203.8125,688.3125 Q203.8125,690.4063 204.5,691.4844 Q205.1875,692.5469 206.5313,692.5469 Q207.1563,692.5469 207.75,692.2813 Q208.3438,692 208.9688,691.4219 L208.9688,694.1406 Z " fill="#000000"/><text fill="#000000" font-family="sans-serif" font-size="12" lengthAdjust="spacing" textLength="44" x="220" y="692.6543">Person</text><line style="stroke:#A80036;stroke-width:1.5;" x1="192" x2="266" y1="704.5" y2="704.5"/><line style="stroke:#A80036;stroke-width:1.5;" x1="192" x2="266" y1="712.5" y2="712.5"/><!--MD5=[e44229c5e70925dcd4e100cd76fc2258]
class ContactDetails--><rect codeLine="79" fill="#FEFECE" filter="url(#f116pbdv56uzll)" height="48" id="ContactDetails" style="stroke:#A80036;stroke-width:1.5;" width="124" x="32" y="672.5"/><ellipse cx="47" cy="688.5" fill="#ADD1B2" rx="11" ry="11" style="stroke:#A80036;stroke-width:1.0;"/><path d="M49.9688,694.1406 Q49.3906,694.4375 48.75,694.5781 Q48.1094,694.7344 47.4063,694.7344 Q44.9063,694.7344 43.5781,693.0938 Q42.2656,691.4375 42.2656,688.3125 Q42.2656,685.1875 43.5781,683.5313 Q44.9063,681.875 47.4063,681.875 Q48.1094,681.875 48.75,682.0313 Q49.4063,682.1875 49.9688,682.4844 L49.9688,685.2031 Q49.3438,684.625 48.75,684.3594 Q48.1563,684.0781 47.5313,684.0781 Q46.1875,684.0781 45.5,685.1563 Q44.8125,686.2188 44.8125,688.3125 Q44.8125,690.4063 45.5,691.4844 Q46.1875,692.5469 47.5313,692.5469 Q48.1563,692.5469 48.75,692.2813 Q49.3438,692 49.9688,691.4219 L49.9688,694.1406 Z " fill="#000000"/><text fill="#000000" font-family="sans-serif" font-size="12" lengthAdjust="spacing" textLength="92" x="61" y="692.6543">ContactDetails</text><line style="stroke:#A80036;stroke-width:1.5;" x1="33" x2="155" y1="704.5" y2="704.5"/><line style="stroke:#A80036;stroke-width:1.5;" x1="33" x2="155" y1="712.5" y2="712.5"/><!--MD5=[620d571e077dba97c0fce2ff5173b928]
link SystemAdministrator to Credit--><path codeLine="83" d="M109.92,134.08 C104.49,182.07 96.79,295.26 131,381 C170.7,480.51 254.37,572.04 316.32,630.39 " fill="none" id="SystemAdministrator-to-Credit" style="stroke:#A80036;stroke-width:1.0;"/><polygon fill="#A80036" points="320,633.84,316.1687,624.7669,316.3519,630.4208,310.698,630.6039,320,633.84" style="stroke:#A80036;stroke-width:1.0;"/><polygon fill="#000000" points="159.9199,424.1831,159.1604,414.7029,153.7331,416.9599,159.9199,424.1831" style="stroke:#000000;stroke-width:1.0;"/><text fill="#000000" font-family="sans-serif" font-size="13" lengthAdjust="spacing" textLength="60" x="167" y="424.0669">Approves</text><text fill="#000000" font-family="sans-serif" font-size="13" lengthAdjust="spacing" textLength="8" x="100.1058" y="154.2563">1</text><text fill="#000000" font-family="sans-serif" font-size="13" lengthAdjust="spacing" textLength="23" x="287.3453" y="622.8123">1..*</text><!--MD5=[47b08513909cecda75ebaf302d1d0f50]
link SystemAdministrator to CompanyAdministrator--><path codeLine="84" d="M193.88,110 C198.65,110 203.41,110 208.18,110 " fill="none" id="SystemAdministrator-to-CompanyAdministrator" style="stroke:#A80036;stroke-width:1.0;"/><polygon fill="none" points="208.42,103,228.42,110,208.42,117,208.42,103" style="stroke:#A80036;stroke-width:1.0;"/><!--MD5=[17e783bf0bdd3b7e9feb83bc141da981]
link CompanyAdministrator to Producer--><path codeLine="86" d="M401.84,110 C406.6,110 411.36,110 416.12,110 " fill="none" id="CompanyAdministrator-to-Producer" style="stroke:#A80036;stroke-width:1.0;"/><polygon fill="none" points="416.33,103,436.33,110,416.33,117,416.33,103" style="stroke:#A80036;stroke-width:1.0;"/><!--MD5=[fcb1d6488fe43466ecce6ea53daef192]
link CompanyAdministrator to Company--><path codeLine="87" d="M325.951,152.5228 C325.951,152.5228 341.56,202.76 352,226 C354.72,232.05 357.74,238.2 360.92,244.32 " fill="none" id="CompanyAdministrator-Company" style="stroke:#A80036;stroke-width:1.0;"/><polygon fill="#A80036" points="367.21,255.98,366.4584,246.1599,364.8366,251.5792,359.4172,249.9574,367.21,255.98" style="stroke:#A80036;stroke-width:1.0;"/><line style="stroke:#A80036;stroke-width:1.0;" x1="364.8366" x2="361.035" y1="251.5792" y2="244.53"/><polygon fill="#FFFFFF" points="322.67,140.98,320.4629,147.845,325.951,152.5228,328.1581,145.6577,322.67,140.98" style="stroke:#A80036;stroke-width:1.0;"/><polygon fill="#000000" points="358.7799,222.2389,358.3064,212.7401,352.8136,214.8325,358.7799,222.2389" style="stroke:#000000;stroke-width:1.0;"/><text fill="#000000" font-family="sans-serif" font-size="13" lengthAdjust="spacing" textLength="58" x="366" y="222.0669">Manages</text><text fill="#000000" font-family="sans-serif" font-size="13" lengthAdjust="spacing" textLength="7" x="316.4649" y="160.4134">*</text><text fill="#000000" font-family="sans-serif" font-size="13" lengthAdjust="spacing" textLength="8" x="354.2624" y="244.9684">1</text><!--MD5=[76bb363ccf2a88af566b84f1de6a4068]
link CompanyAdministrator to Channel--><path codeLine="88" d="M293.2981,151.2627 C293.2981,151.2627 273.45,190.11 265,209 C258.17,224.28 251.36,241.03 245.27,256.7 " fill="none" id="CompanyAdministrator-Channel" style="stroke:#A80036;stroke-width:1.0;"/><polygon fill="#A80036" points="240.56,268.99,247.5132,262.0148,242.3475,264.3204,240.0419,259.1548,240.56,268.99" style="stroke:#A80036;stroke-width:1.0;"/><line style="stroke:#A80036;stroke-width:1.0;" x1="242.3475" x2="245.215" y1="264.3204" y2="256.855"/><polygon fill="#FFFFFF" points="298.88,140.64,292.5481,144.0907,293.2981,151.2627,299.63,147.812,298.88,140.64" style="stroke:#A80036;stroke-width:1.0;"/><polygon fill="#000000" points="267.9273,222.1166,274.3513,215.1035,269.0023,212.667,267.9273,222.1166" style="stroke:#000000;stroke-width:1.0;"/><text fill="#000000" font-family="sans-serif" font-size="13" lengthAdjust="spacing" textLength="58" x="279" y="222.0669">Manages</text><text fill="#000000" font-family="sans-serif" font-size="13" lengthAdjust="spacing" textLength="7" x="287.8334" y="160.6071">*</text><text fill="#000000" font-family="sans-serif" font-size="13" lengthAdjust="spacing" textLength="7" x="235.5372" y="258.0338">*</text><!--MD5=[71a97a490704c070434937750bde4e67]
link Producer to Program--><path codeLine="90" d="M545.88,192.11 C540.83,248.02 528.18,322.5 497,381 C484.37,404.7 448.8172,448.8012 448.8172,448.8012 " fill="none" id="Producer-Program" style="stroke:#A80036;stroke-width:1.0;"/><polygon fill="#FFFFFF" points="440.89,457.81,447.8566,455.948,448.8172,448.8012,441.8507,450.6632,440.89,457.81" style="stroke:#A80036;stroke-width:1.0;"/><polygon fill="#A80036" points="546.96,179.04,542.2414,187.6849,546.5534,184.0234,550.2149,188.3355,546.96,179.04" style="stroke:#A80036;stroke-width:1.0;"/><line style="stroke:#A80036;stroke-width:1.0;" x1="546.5534" x2="545.895" y1="184.0234" y2="191.99"/><polygon fill="#000000" points="539.2316,323.2432,545.1797,315.8223,539.6817,313.7433,539.2316,323.2432" style="stroke:#000000;stroke-width:1.0;"/><text fill="#000000" font-family="sans-serif" font-size="13" lengthAdjust="spacing" textLength="34" x="550" y="323.0669">Owns</text><text fill="#000000" font-family="sans-serif" font-size="13" lengthAdjust="spacing" textLength="8" x="538.3654" y="198.6659">1</text><text fill="#000000" font-family="sans-serif" font-size="13" lengthAdjust="spacing" textLength="23" x="423.148" y="446.8285">1..*</text><!--MD5=[e3b4331ceeb2a83c060af12571a7e3ca]
link Producer to AuthController--><path codeLine="91" d="M674.76,110 C711.86,110 787.9,110 787.9,110 " fill="none" id="Producer-AuthController" style="stroke:#A80036;stroke-width:1.0;"/><polygon fill="#FFFFFF" points="799.9,110,793.9,106,787.9,110,793.9,114,799.9,110" style="stroke:#A80036;stroke-width:1.0;"/><polygon fill="#A80036" points="661.61,110,670.61,114,666.61,110,670.61,106,661.61,110" style="stroke:#A80036;stroke-width:1.0;"/><line style="stroke:#A80036;stroke-width:1.0;" x1="666.61" x2="674.61" y1="110" y2="110"/><polygon fill="#000000" points="678.75,98.5664,687.7951,101.5053,687.7951,95.6275,678.75,98.5664" style="stroke:#000000;stroke-width:1.0;"/><text fill="#000000" font-family="sans-serif" font-size="13" lengthAdjust="spacing" textLength="89" x="692.75" y="103.0669">Authenticates</text><text fill="#000000" font-family="sans-serif" font-size="13" lengthAdjust="spacing" textLength="8" x="669.4447" y="106.5798">1</text><text fill="#000000" font-family="sans-serif" font-size="13" lengthAdjust="spacing" textLength="8" x="783.8705" y="106.3996">1</text><!--MD5=[1fdb9fc6a8b82485479cb590cd830c3d]
link Producer to Company--><path codeLine="92" d="M494.9481,189.0554 C494.9481,189.0554 468.44,227.33 456.12,245.12 " fill="none" id="Producer-Company" style="stroke:#A80036;stroke-width:1.0;"/><polygon fill="#A80036" points="448.59,256,457.0024,250.8783,451.4366,251.8894,450.4255,246.3237,448.59,256" style="stroke:#A80036;stroke-width:1.0;"/><line style="stroke:#A80036;stroke-width:1.0;" x1="451.4366" x2="455.99" y1="251.8894" y2="245.31"/><polygon fill="#FFFFFF" points="501.78,179.19,495.0756,181.8454,494.9481,189.0554,501.6525,186.4,501.78,179.19" style="stroke:#A80036;stroke-width:1.0;"/><polygon fill="#000000" points="479.1533,221.6769,486.7191,215.9142,481.887,212.5677,479.1533,221.6769" style="stroke:#000000;stroke-width:1.0;"/><text fill="#000000" font-family="sans-serif" font-size="13" lengthAdjust="spacing" textLength="42" x="491" y="222.0669">Part of</text><!--MD5=[00c8dc9f3cdfaa4cd82e30ac9f31d7a8]
link Producer to DB--><path codeLine="93" d="M585.32,179.19 C606.47,218.9 631.81,266.45 646.58,294.19 " fill="none" id="Producer-DB" style="stroke:#A80036;stroke-width:1.0;"/><polygon fill="#000000" points="609.6492,213.1535,611.3079,222.5183,616.4957,219.7548,609.6492,213.1535" style="stroke:#000000;stroke-width:1.0;"/><text fill="#000000" font-family="sans-serif" font-size="13" lengthAdjust="spacing" textLength="56" x="621" y="222.0669">Contains</text><text fill="#000000" font-family="sans-serif" font-size="13" lengthAdjust="spacing" textLength="23" x="564.6857" y="198.5902">1..*</text><text fill="#000000" font-family="sans-serif" font-size="13" lengthAdjust="spacing" textLength="8" x="634.5776" y="283.5194">1</text><!--MD5=[162bd9f14b116b1620a5e64ad84e0518]
link Channel to Program--><path codeLine="95" d="M275.96,378.1 C296.12,400.41 339.9242,448.8769 339.9242,448.8769 " fill="none" id="Channel-Program" style="stroke:#A80036;stroke-width:1.0;"/><polygon fill="#FFFFFF" points="347.97,457.78,346.9148,450.6465,339.9242,448.8769,340.9794,456.0104,347.97,457.78" style="stroke:#A80036;stroke-width:1.0;"/><polygon fill="#A80036" points="266.96,368.14,270.0266,377.4993,270.3124,371.8496,275.962,372.1354,266.96,368.14" style="stroke:#A80036;stroke-width:1.0;"/><line style="stroke:#A80036;stroke-width:1.0;" x1="270.3124" x2="275.675" y1="371.8496" y2="377.79"/><polygon fill="#000000" points="326.3525,423.276,322.4682,414.5948,318.1074,418.5359,326.3525,423.276" style="stroke:#000000;stroke-width:1.0;"/><text fill="#000000" font-family="sans-serif" font-size="13" lengthAdjust="spacing" textLength="41" x="332" y="424.0669">Shows</text><text fill="#000000" font-family="sans-serif" font-size="13" lengthAdjust="spacing" textLength="8" x="264.5794" y="388.2362">1</text><text fill="#000000" font-family="sans-serif" font-size="13" lengthAdjust="spacing" textLength="23" x="317.1611" y="446.7943">1..*</text><!--MD5=[286637dcaa03c9212d91116f113cc620]
link Credit to CreditRole--><path codeLine="97" d="M493.6,696.5 C493.6,696.5 527.68,696.5 542.68,696.5 " fill="none" id="Credit-CreditRole" style="stroke:#A80036;stroke-width:1.0;"/><polygon fill="#A80036" points="556,696.5,547,692.5,551,696.5,547,700.5,556,696.5" style="stroke:#A80036;stroke-width:1.0;"/><line style="stroke:#A80036;stroke-width:1.0;" x1="551" x2="543" y1="696.5" y2="696.5"/><polygon fill="#FFFFFF" points="481.6,696.5,487.6,700.5,493.6,696.5,487.6,692.5,481.6,696.5" style="stroke:#A80036;stroke-width:1.0;"/><polygon fill="#000000" points="508.75,685.0664,499.7049,682.1275,499.7049,688.0053,508.75,685.0664" style="stroke:#000000;stroke-width:1.0;"/><text fill="#000000" font-family="sans-serif" font-size="13" lengthAdjust="spacing" textLength="25" x="512.75" y="689.5669">Has</text><text fill="#000000" font-family="sans-serif" font-size="13" lengthAdjust="spacing" textLength="8" x="489.6438" y="692.9355">1</text><text fill="#000000" font-family="sans-serif" font-size="13" lengthAdjust="spacing" textLength="23" x="525.0047" y="709.5968">1..*</text><!--MD5=[2188ce9f683ca3d287b5c8641e215b9c]
link Program to Credit--><path codeLine="99" d="M392,570.17 C392,586.27 392,621.68 392,621.68 " fill="none" id="Program-Credit" style="stroke:#A80036;stroke-width:1.0;"/><polygon fill="#FFFFFF" points="392,633.68,396,627.68,392,621.68,388,627.68,392,633.68" style="stroke:#A80036;stroke-width:1.0;"/><polygon fill="#A80036" points="392,557.14,388,566.14,392,562.14,396,566.14,392,557.14" style="stroke:#A80036;stroke-width:1.0;"/><line style="stroke:#A80036;stroke-width:1.0;" x1="392" x2="392" y1="562.14" y2="570.14"/><polygon fill="#000000" points="397,600.5664,399.9389,591.5213,394.0611,591.5213,397,600.5664" style="stroke:#000000;stroke-width:1.0;"/><text fill="#000000" font-family="sans-serif" font-size="13" lengthAdjust="spacing" textLength="25" x="406" y="600.0669">Has</text><text fill="#000000" font-family="sans-serif" font-size="13" lengthAdjust="spacing" textLength="8" x="383.4375" y="577.2362">1</text><text fill="#000000" font-family="sans-serif" font-size="13" lengthAdjust="spacing" textLength="23" x="367.7422" y="623.0723">1..*</text><!--MD5=[8b34ded8b26f140bd7ef8771bfdd97a7]
link Person to Credit--><path codeLine="101" d="M280.37,696.5 C283.34,696.5 290.3,696.5 290.3,696.5 " fill="none" id="Person-Credit" style="stroke:#A80036;stroke-width:1.0;"/><polygon fill="#FFFFFF" points="302.3,696.5,296.3,692.5,290.3,696.5,296.3,700.5,302.3,696.5" style="stroke:#A80036;stroke-width:1.0;"/><polygon fill="#A80036" points="267.2,696.5,276.2,700.5,272.2,696.5,276.2,692.5,267.2,696.5" style="stroke:#A80036;stroke-width:1.0;"/><line style="stroke:#A80036;stroke-width:1.0;" x1="272.2" x2="280.2" y1="696.5" y2="696.5"/><text fill="#000000" font-family="sans-serif" font-size="13" lengthAdjust="spacing" textLength="8" x="274.9806" y="692.1963">1</text><text fill="#000000" font-family="sans-serif" font-size="13" lengthAdjust="spacing" textLength="8" x="286.5405" y="692.9584">1</text><!--MD5=[3619f0529956f45982a9ee1ca51baef0]
link ContactDetails to Person--><path codeLine="102" d="M169.23,696.5 C172.05,696.5 178.91,696.5 178.91,696.5 " fill="none" id="ContactDetails-Person" style="stroke:#A80036;stroke-width:1.0;"/><polygon fill="#A80036" points="190.91,696.5,184.91,692.5,178.91,696.5,184.91,700.5,190.91,696.5" style="stroke:#A80036;stroke-width:1.0;"/><polygon fill="#A80036" points="156.23,696.5,165.23,700.5,161.23,696.5,165.23,692.5,156.23,696.5" style="stroke:#A80036;stroke-width:1.0;"/><line style="stroke:#A80036;stroke-width:1.0;" x1="161.23" x2="169.23" y1="696.5" y2="696.5"/><text fill="#000000" font-family="sans-serif" font-size="13" lengthAdjust="spacing" textLength="8" x="163.8878" y="692.7074">1</text><text fill="#000000" font-family="sans-serif" font-size="13" lengthAdjust="spacing" textLength="8" x="174.8866" y="692.1499">1</text><!--MD5=[fbd926c7fd6aa51f1bd0a5a129abe1c5]
@startuml
'https://plantuml.com/class-diagram

package "domain" {
    'Personer her
    class Producer {
        - email : String
        - name : String
        - image : String
        - -
        + getName() : String
        + getEmail() : String
        + getImage(): String
        + validatePassword(String) : boolean
    }

    class CompanyAdministrator {
        - company: Company
    }

    class SystemAdministrator {
    }

    'Naeste
    class Company {
        - regNo : int
        - name : String
        - manager : String
        - -
        + getRegNo() : int
        + getName() : String
        + getManager() : String
    }

    class Channel {
        - name: String
        - category: String
        - -
        + getName() : String
        + getCategory() : String
    }

    class Program {
        - title: String
        -startTime: long
        -endTime: long
        - -
        + getTitle() : String
    }

    class CreditRole {
        - title : String
    }


    class Credit {
        - name : String
        - role : CreditRole
        - date : OffsetDateTime
        - -
        + getName() : String
        + getRole() : CreditRole
        + getDate() : OffsetDateTime
    }

    'Controller
    class AuthController {
        - -
        + resetPassword() : String
        + signIn() : Producer
    }

    'Statics
    class DB {
    }

    class Person {
    }

    class ContactDetails {
    }
}

SystemAdministrator "1" - -> "1..*" Credit : "Approves >"
SystemAdministrator -|> CompanyAdministrator

CompanyAdministrator -|> Producer
CompanyAdministrator "*" o- -> "1" Company : "Manages >"
CompanyAdministrator "*" o- -> "*" Channel : "Manages >"

Producer "1" <- -o "1..*" Program : "Owns >"
Producer "1" <-o "1" AuthController : "Authenticates <"
Producer o- -> Company : "Part of >"
Producer "1..*" - - "1" DB : "Contains <"

Channel "1" <- -o "1..*" Program : "Shows >"

Credit "1" o-> "1..*" CreditRole : "Has >"

Program "1" <- -o "1..*" Credit : "Has >"

Person "1" <-o "1" Credit
ContactDetails "1" <-* "1" Person

@enduml

@startuml

package "domain" {
    class Producer {
        - email : String
        - name : String
        - image : String
        - -
        + getName() : String
        + getEmail() : String
        + getImage(): String
        + validatePassword(String) : boolean
    }

    class CompanyAdministrator {
        - company: Company
    }

    class SystemAdministrator {
    }

    class Company {
        - regNo : int
        - name : String
        - manager : String
        - -
        + getRegNo() : int
        + getName() : String
        + getManager() : String
    }

    class Channel {
        - name: String
        - category: String
        - -
        + getName() : String
        + getCategory() : String
    }

    class Program {
        - title: String
        -startTime: long
        -endTime: long
        - -
        + getTitle() : String
    }

    class CreditRole {
        - title : String
    }


    class Credit {
        - name : String
        - role : CreditRole
        - date : OffsetDateTime
        - -
        + getName() : String
        + getRole() : CreditRole
        + getDate() : OffsetDateTime
    }

    class AuthController {
        - -
        + resetPassword() : String
        + signIn() : Producer
    }

    class DB {
    }

    class Person {
    }

    class ContactDetails {
    }
}

SystemAdministrator "1" - -> "1..*" Credit : "Approves >"
SystemAdministrator -|> CompanyAdministrator

CompanyAdministrator -|> Producer
CompanyAdministrator "*" o- -> "1" Company : "Manages >"
CompanyAdministrator "*" o- -> "*" Channel : "Manages >"

Producer "1" <- -o "1..*" Program : "Owns >"
Producer "1" <-o "1" AuthController : "Authenticates <"
Producer o- -> Company : "Part of >"
Producer "1..*" - - "1" DB : "Contains <"

Channel "1" <- -o "1..*" Program : "Shows >"

Credit "1" o-> "1..*" CreditRole : "Has >"

Program "1" <- -o "1..*" Credit : "Has >"

Person "1" <-o "1" Credit
ContactDetails "1" <-* "1" Person

@enduml

PlantUML version 1.2021.5(Sun Apr 25 11:20:28 UTC 2021)
(GPL source distribution)
Java Runtime: OpenJDK Runtime Environment
JVM: OpenJDK 64-Bit Server VM
Default Encoding: UTF-8
Language: en
Country: null
--></g></svg>