<?xml version="1.0" encoding="UTF-8" standalone="no"?><svg xmlns="http://www.w3.org/2000/svg" xmlns:xlink="http://www.w3.org/1999/xlink" contentScriptType="application/ecmascript" contentStyleType="text/css" height="739px" preserveAspectRatio="none" style="width:700px;height:739px;background:#FFFFFF;" version="1.1" viewBox="0 0 700 739" width="700px" zoomAndPan="magnify"><defs><filter height="300%" id="fcwmon8j33yvg" width="300%" x="-1" y="-1"><feGaussianBlur result="blurOut" stdDeviation="2.0"/><feColorMatrix in="blurOut" result="blurOut2" type="matrix" values="0 0 0 0 0 0 0 0 0 0 0 0 0 0 0 0 0 0 .4 0"/><feOffset dx="4.0" dy="4.0" in="blurOut2" result="blurOut3"/><feBlend in="SourceGraphic" in2="blurOut3" mode="normal"/></filter></defs><g><!--MD5=[27f772719433d509ddbc20ff768eba08]
cluster domain--><polygon fill="#FFFFFF" filter="url(#fcwmon8j33yvg)" points="16,6,79,6,86,28.2969,655,28.2969,655,732,16,732,16,6" style="stroke:#000000;stroke-width:1.5;"/><line style="stroke:#000000;stroke-width:1.5;" x1="16" x2="86" y1="28.2969" y2="28.2969"/><text fill="#000000" font-family="sans-serif" font-size="14" font-weight="bold" lengthAdjust="spacing" textLength="57" x="20" y="20.9951">domain</text><!--MD5=[09e3160644ea82bed9dc2bfdc7bfe5c8]
class Producer--><rect codeLine="5" fill="#FEFECE" filter="url(#fcwmon8j33yvg)" height="86.4141" id="Producer" style="stroke:#A80036;stroke-width:1.5;" width="107" x="342.5" y="304"/><ellipse cx="365.6" cy="320" fill="#ADD1B2" rx="11" ry="11" style="stroke:#A80036;stroke-width:1.0;"/><path d="M368.5688,325.6406 Q367.9906,325.9375 367.35,326.0781 Q366.7094,326.2344 366.0063,326.2344 Q363.5063,326.2344 362.1781,324.5938 Q360.8656,322.9375 360.8656,319.8125 Q360.8656,316.6875 362.1781,315.0313 Q363.5063,313.375 366.0063,313.375 Q366.7094,313.375 367.35,313.5313 Q368.0063,313.6875 368.5688,313.9844 L368.5688,316.7031 Q367.9438,316.125 367.35,315.8594 Q366.7563,315.5781 366.1313,315.5781 Q364.7875,315.5781 364.1,316.6563 Q363.4125,317.7188 363.4125,319.8125 Q363.4125,321.9063 364.1,322.9844 Q364.7875,324.0469 366.1313,324.0469 Q366.7563,324.0469 367.35,323.7813 Q367.9438,323.5 368.5688,322.9219 L368.5688,325.6406 Z " fill="#000000"/><text fill="#000000" font-family="sans-serif" font-size="12" lengthAdjust="spacing" textLength="57" x="381.4" y="324.1543">Producer</text><line style="stroke:#A80036;stroke-width:1.5;" x1="343.5" x2="448.5" y1="336" y2="336"/><rect fill="none" height="6" style="stroke:#C82930;stroke-width:1.0;" width="6" x="350.5" y="344"/><text fill="#000000" font-family="sans-serif" font-size="11" lengthAdjust="spacing" textLength="77" x="362.5" y="350.2104">email : String</text><rect fill="none" height="6" style="stroke:#C82930;stroke-width:1.0;" width="6" x="350.5" y="356.8047"/><text fill="#000000" font-family="sans-serif" font-size="11" lengthAdjust="spacing" textLength="78" x="362.5" y="363.0151">name : String</text><rect fill="none" height="6" style="stroke:#C82930;stroke-width:1.0;" width="6" x="350.5" y="369.6094"/><text fill="#000000" font-family="sans-serif" font-size="11" lengthAdjust="spacing" textLength="81" x="362.5" y="375.8198">image : String</text><line style="stroke:#A80036;stroke-width:1.0;" x1="343.5" x2="448.5" y1="382.4141" y2="382.4141"/><!--MD5=[682cceb3213bcbb637d022cca5daab3c]
class CompanyAdministrator--><rect codeLine="12" fill="#FEFECE" filter="url(#fcwmon8j33yvg)" height="60.8047" id="CompanyAdministrator" style="stroke:#A80036;stroke-width:1.5;" width="173" x="309.5" y="166"/><ellipse cx="324.5" cy="182" fill="#ADD1B2" rx="11" ry="11" style="stroke:#A80036;stroke-width:1.0;"/><path d="M327.4688,187.6406 Q326.8906,187.9375 326.25,188.0781 Q325.6094,188.2344 324.9063,188.2344 Q322.4063,188.2344 321.0781,186.5938 Q319.7656,184.9375 319.7656,181.8125 Q319.7656,178.6875 321.0781,177.0313 Q322.4063,175.375 324.9063,175.375 Q325.6094,175.375 326.25,175.5313 Q326.9063,175.6875 327.4688,175.9844 L327.4688,178.7031 Q326.8438,178.125 326.25,177.8594 Q325.6563,177.5781 325.0313,177.5781 Q323.6875,177.5781 323,178.6563 Q322.3125,179.7188 322.3125,181.8125 Q322.3125,183.9063 323,184.9844 Q323.6875,186.0469 325.0313,186.0469 Q325.6563,186.0469 326.25,185.7813 Q326.8438,185.5 327.4688,184.9219 L327.4688,187.6406 Z " fill="#000000"/><text fill="#000000" font-family="sans-serif" font-size="12" lengthAdjust="spacing" textLength="141" x="338.5" y="186.1543">CompanyAdministrator</text><line style="stroke:#A80036;stroke-width:1.5;" x1="310.5" x2="481.5" y1="198" y2="198"/><rect fill="none" height="6" style="stroke:#C82930;stroke-width:1.0;" width="6" x="317.5" y="206"/><text fill="#000000" font-family="sans-serif" font-size="11" lengthAdjust="spacing" textLength="112" x="329.5" y="212.2104">company: Company</text><line style="stroke:#A80036;stroke-width:1.5;" x1="310.5" x2="481.5" y1="218.8047" y2="218.8047"/><!--MD5=[9e0344aee5137892075360975b58a39b]
class SystemAdministrator--><rect codeLine="16" fill="#FEFECE" filter="url(#fcwmon8j33yvg)" height="48" id="SystemAdministrator" style="stroke:#A80036;stroke-width:1.5;" width="161" x="394.5" y="41"/><ellipse cx="409.5" cy="57" fill="#ADD1B2" rx="11" ry="11" style="stroke:#A80036;stroke-width:1.0;"/><path d="M412.4688,62.6406 Q411.8906,62.9375 411.25,63.0781 Q410.6094,63.2344 409.9063,63.2344 Q407.4063,63.2344 406.0781,61.5938 Q404.7656,59.9375 404.7656,56.8125 Q404.7656,53.6875 406.0781,52.0313 Q407.4063,50.375 409.9063,50.375 Q410.6094,50.375 411.25,50.5313 Q411.9063,50.6875 412.4688,50.9844 L412.4688,53.7031 Q411.8438,53.125 411.25,52.8594 Q410.6563,52.5781 410.0313,52.5781 Q408.6875,52.5781 408,53.6563 Q407.3125,54.7188 407.3125,56.8125 Q407.3125,58.9063 408,59.9844 Q408.6875,61.0469 410.0313,61.0469 Q410.6563,61.0469 411.25,60.7813 Q411.8438,60.5 412.4688,59.9219 L412.4688,62.6406 Z " fill="#000000"/><text fill="#000000" font-family="sans-serif" font-size="12" lengthAdjust="spacing" textLength="129" x="423.5" y="61.1543">SystemAdministrator</text><line style="stroke:#A80036;stroke-width:1.5;" x1="395.5" x2="554.5" y1="73" y2="73"/><line style="stroke:#A80036;stroke-width:1.5;" x1="395.5" x2="554.5" y1="81" y2="81"/><!--MD5=[02e4b9b7573f1156f41e60aa5b4e25a4]
class Company--><rect codeLine="20" fill="#FEFECE" filter="url(#fcwmon8j33yvg)" height="86.4141" id="Company" style="stroke:#A80036;stroke-width:1.5;" width="123" x="141.5" y="467"/><ellipse cx="171.8" cy="483" fill="#ADD1B2" rx="11" ry="11" style="stroke:#A80036;stroke-width:1.0;"/><path d="M174.7688,488.6406 Q174.1906,488.9375 173.55,489.0781 Q172.9094,489.2344 172.2063,489.2344 Q169.7063,489.2344 168.3781,487.5938 Q167.0656,485.9375 167.0656,482.8125 Q167.0656,479.6875 168.3781,478.0313 Q169.7063,476.375 172.2063,476.375 Q172.9094,476.375 173.55,476.5313 Q174.2063,476.6875 174.7688,476.9844 L174.7688,479.7031 Q174.1438,479.125 173.55,478.8594 Q172.9563,478.5781 172.3313,478.5781 Q170.9875,478.5781 170.3,479.6563 Q169.6125,480.7188 169.6125,482.8125 Q169.6125,484.9063 170.3,485.9844 Q170.9875,487.0469 172.3313,487.0469 Q172.9563,487.0469 173.55,486.7813 Q174.1438,486.5 174.7688,485.9219 L174.7688,488.6406 Z " fill="#000000"/><text fill="#000000" font-family="sans-serif" font-size="12" lengthAdjust="spacing" textLength="57" x="189.2" y="487.1543">Company</text><line style="stroke:#A80036;stroke-width:1.5;" x1="142.5" x2="263.5" y1="499" y2="499"/><rect fill="none" height="6" style="stroke:#C82930;stroke-width:1.0;" width="6" x="149.5" y="507"/><text fill="#000000" font-family="sans-serif" font-size="11" lengthAdjust="spacing" textLength="60" x="161.5" y="513.2104">regNo : int</text><rect fill="none" height="6" style="stroke:#C82930;stroke-width:1.0;" width="6" x="149.5" y="519.8047"/><text fill="#000000" font-family="sans-serif" font-size="11" lengthAdjust="spacing" textLength="78" x="161.5" y="526.0151">name : String</text><rect fill="none" height="6" style="stroke:#C82930;stroke-width:1.0;" width="6" x="149.5" y="532.6094"/><text fill="#000000" font-family="sans-serif" font-size="11" lengthAdjust="spacing" textLength="97" x="161.5" y="538.8198">manager : String</text><line style="stroke:#A80036;stroke-width:1.0;" x1="142.5" x2="263.5" y1="545.4141" y2="545.4141"/><!--MD5=[1e4e6ac1845d89d680410515caa0c0ac]
class Channel--><rect codeLine="27" fill="#FEFECE" filter="url(#fcwmon8j33yvg)" height="73.6094" id="Channel" style="stroke:#A80036;stroke-width:1.5;" width="117" x="484.5" y="310"/><ellipse cx="514.8" cy="326" fill="#ADD1B2" rx="11" ry="11" style="stroke:#A80036;stroke-width:1.0;"/><path d="M517.7688,331.6406 Q517.1906,331.9375 516.55,332.0781 Q515.9094,332.2344 515.2063,332.2344 Q512.7063,332.2344 511.3781,330.5938 Q510.0656,328.9375 510.0656,325.8125 Q510.0656,322.6875 511.3781,321.0313 Q512.7063,319.375 515.2063,319.375 Q515.9094,319.375 516.55,319.5313 Q517.2063,319.6875 517.7688,319.9844 L517.7688,322.7031 Q517.1438,322.125 516.55,321.8594 Q515.9563,321.5781 515.3313,321.5781 Q513.9875,321.5781 513.3,322.6563 Q512.6125,323.7188 512.6125,325.8125 Q512.6125,327.9063 513.3,328.9844 Q513.9875,330.0469 515.3313,330.0469 Q515.9563,330.0469 516.55,329.7813 Q517.1438,329.5 517.7688,328.9219 L517.7688,331.6406 Z " fill="#000000"/><text fill="#000000" font-family="sans-serif" font-size="12" lengthAdjust="spacing" textLength="51" x="532.2" y="330.1543">Channel</text><line style="stroke:#A80036;stroke-width:1.5;" x1="485.5" x2="600.5" y1="342" y2="342"/><rect fill="none" height="6" style="stroke:#C82930;stroke-width:1.0;" width="6" x="492.5" y="350"/><text fill="#000000" font-family="sans-serif" font-size="11" lengthAdjust="spacing" textLength="74" x="504.5" y="356.2104">name: String</text><rect fill="none" height="6" style="stroke:#C82930;stroke-width:1.0;" width="6" x="492.5" y="362.8047"/><text fill="#000000" font-family="sans-serif" font-size="11" lengthAdjust="spacing" textLength="91" x="504.5" y="369.0151">category: String</text><line style="stroke:#A80036;stroke-width:1.0;" x1="485.5" x2="600.5" y1="375.6094" y2="375.6094"/><!--MD5=[175f95e045c1a44aed0b30df3abe0e5c]
class Program--><rect codeLine="33" fill="#FEFECE" filter="url(#fcwmon8j33yvg)" height="86.4141" id="Program" style="stroke:#A80036;stroke-width:1.5;" width="113" x="335.5" y="467"/><ellipse cx="363.1" cy="483" fill="#ADD1B2" rx="11" ry="11" style="stroke:#A80036;stroke-width:1.0;"/><path d="M366.0688,488.6406 Q365.4906,488.9375 364.85,489.0781 Q364.2094,489.2344 363.5063,489.2344 Q361.0063,489.2344 359.6781,487.5938 Q358.3656,485.9375 358.3656,482.8125 Q358.3656,479.6875 359.6781,478.0313 Q361.0063,476.375 363.5063,476.375 Q364.2094,476.375 364.85,476.5313 Q365.5063,476.6875 366.0688,476.9844 L366.0688,479.7031 Q365.4438,479.125 364.85,478.8594 Q364.2563,478.5781 363.6313,478.5781 Q362.2875,478.5781 361.6,479.6563 Q360.9125,480.7188 360.9125,482.8125 Q360.9125,484.9063 361.6,485.9844 Q362.2875,487.0469 363.6313,487.0469 Q364.2563,487.0469 364.85,486.7813 Q365.4438,486.5 366.0688,485.9219 L366.0688,488.6406 Z " fill="#000000"/><text fill="#000000" font-family="sans-serif" font-size="12" lengthAdjust="spacing" textLength="53" x="379.9" y="487.1543">Program</text><line style="stroke:#A80036;stroke-width:1.5;" x1="336.5" x2="447.5" y1="499" y2="499"/><rect fill="none" height="6" style="stroke:#C82930;stroke-width:1.0;" width="6" x="343.5" y="507"/><text fill="#000000" font-family="sans-serif" font-size="11" lengthAdjust="spacing" textLength="63" x="355.5" y="513.2104">title: String</text><rect fill="none" height="6" style="stroke:#C82930;stroke-width:1.0;" width="6" x="343.5" y="519.8047"/><text fill="#000000" font-family="sans-serif" font-size="11" lengthAdjust="spacing" textLength="87" x="355.5" y="526.0151">startTime: long</text><rect fill="none" height="6" style="stroke:#C82930;stroke-width:1.0;" width="6" x="343.5" y="532.6094"/><text fill="#000000" font-family="sans-serif" font-size="11" lengthAdjust="spacing" textLength="81" x="355.5" y="538.8198">endTime: long</text><line style="stroke:#A80036;stroke-width:1.0;" x1="336.5" x2="447.5" y1="545.4141" y2="545.4141"/><!--MD5=[a6db4508d99df11b61134feed24d590d]
class CreditRole--><rect codeLine="40" fill="#FEFECE" filter="url(#fcwmon8j33yvg)" height="60.8047" id="CreditRole" style="stroke:#A80036;stroke-width:1.5;" width="96" x="543" y="642.5"/><ellipse cx="558" cy="658.5" fill="#ADD1B2" rx="11" ry="11" style="stroke:#A80036;stroke-width:1.0;"/><path d="M560.9688,664.1406 Q560.3906,664.4375 559.75,664.5781 Q559.1094,664.7344 558.4063,664.7344 Q555.9063,664.7344 554.5781,663.0938 Q553.2656,661.4375 553.2656,658.3125 Q553.2656,655.1875 554.5781,653.5313 Q555.9063,651.875 558.4063,651.875 Q559.1094,651.875 559.75,652.0313 Q560.4063,652.1875 560.9688,652.4844 L560.9688,655.2031 Q560.3438,654.625 559.75,654.3594 Q559.1563,654.0781 558.5313,654.0781 Q557.1875,654.0781 556.5,655.1563 Q555.8125,656.2188 555.8125,658.3125 Q555.8125,660.4063 556.5,661.4844 Q557.1875,662.5469 558.5313,662.5469 Q559.1563,662.5469 559.75,662.2813 Q560.3438,662 560.9688,661.4219 L560.9688,664.1406 Z " fill="#000000"/><text fill="#000000" font-family="sans-serif" font-size="12" lengthAdjust="spacing" textLength="64" x="572" y="662.6543">CreditRole</text><line style="stroke:#A80036;stroke-width:1.5;" x1="544" x2="638" y1="674.5" y2="674.5"/><rect fill="none" height="6" style="stroke:#C82930;stroke-width:1.0;" width="6" x="551" y="682.5"/><text fill="#000000" font-family="sans-serif" font-size="11" lengthAdjust="spacing" textLength="67" x="563" y="688.7104">title : String</text><line style="stroke:#A80036;stroke-width:1.5;" x1="544" x2="638" y1="695.3047" y2="695.3047"/><!--MD5=[eb0e8f8ddfdc21c3fdb48447501fec67]
class Review--><rect codeLine="44" fill="#FEFECE" filter="url(#fcwmon8j33yvg)" height="48" id="Review" style="stroke:#A80036;stroke-width:1.5;" width="74" x="518" y="172.5"/><ellipse cx="533" cy="188.5" fill="#ADD1B2" rx="11" ry="11" style="stroke:#A80036;stroke-width:1.0;"/><path d="M535.9688,194.1406 Q535.3906,194.4375 534.75,194.5781 Q534.1094,194.7344 533.4063,194.7344 Q530.9063,194.7344 529.5781,193.0938 Q528.2656,191.4375 528.2656,188.3125 Q528.2656,185.1875 529.5781,183.5313 Q530.9063,181.875 533.4063,181.875 Q534.1094,181.875 534.75,182.0313 Q535.4063,182.1875 535.9688,182.4844 L535.9688,185.2031 Q535.3438,184.625 534.75,184.3594 Q534.1563,184.0781 533.5313,184.0781 Q532.1875,184.0781 531.5,185.1563 Q530.8125,186.2188 530.8125,188.3125 Q530.8125,190.4063 531.5,191.4844 Q532.1875,192.5469 533.5313,192.5469 Q534.1563,192.5469 534.75,192.2813 Q535.3438,192 535.9688,191.4219 L535.9688,194.1406 Z " fill="#000000"/><text fill="#000000" font-family="sans-serif" font-size="12" lengthAdjust="spacing" textLength="42" x="547" y="192.6543">Review</text><line style="stroke:#A80036;stroke-width:1.5;" x1="519" x2="591" y1="204.5" y2="204.5"/><line style="stroke:#A80036;stroke-width:1.5;" x1="519" x2="591" y1="212.5" y2="212.5"/><!--MD5=[a818d4fdb263ce6d3ad23111dcf8be33]
class Credit--><rect codeLine="47" fill="#FEFECE" filter="url(#fcwmon8j33yvg)" height="86.4141" id="Credit" style="stroke:#A80036;stroke-width:1.5;" width="152" x="316" y="630"/><ellipse cx="369.25" cy="646" fill="#ADD1B2" rx="11" ry="11" style="stroke:#A80036;stroke-width:1.0;"/><path d="M372.2188,651.6406 Q371.6406,651.9375 371,652.0781 Q370.3594,652.2344 369.6563,652.2344 Q367.1563,652.2344 365.8281,650.5938 Q364.5156,648.9375 364.5156,645.8125 Q364.5156,642.6875 365.8281,641.0313 Q367.1563,639.375 369.6563,639.375 Q370.3594,639.375 371,639.5313 Q371.6563,639.6875 372.2188,639.9844 L372.2188,642.7031 Q371.5938,642.125 371,641.8594 Q370.4063,641.5781 369.7813,641.5781 Q368.4375,641.5781 367.75,642.6563 Q367.0625,643.7188 367.0625,645.8125 Q367.0625,647.9063 367.75,648.9844 Q368.4375,650.0469 369.7813,650.0469 Q370.4063,650.0469 371,649.7813 Q371.5938,649.5 372.2188,648.9219 L372.2188,651.6406 Z " fill="#000000"/><text fill="#000000" font-family="sans-serif" font-size="12" lengthAdjust="spacing" textLength="37" x="389.75" y="650.1543">Credit</text><line style="stroke:#A80036;stroke-width:1.5;" x1="317" x2="467" y1="662" y2="662"/><rect fill="none" height="6" style="stroke:#C82930;stroke-width:1.0;" width="6" x="324" y="670"/><text fill="#000000" font-family="sans-serif" font-size="11" lengthAdjust="spacing" textLength="78" x="336" y="676.2104">name : String</text><rect fill="none" height="6" style="stroke:#C82930;stroke-width:1.0;" width="6" x="324" y="682.8047"/><text fill="#000000" font-family="sans-serif" font-size="11" lengthAdjust="spacing" textLength="92" x="336" y="689.0151">role : CreditRole</text><rect fill="none" height="6" style="stroke:#C82930;stroke-width:1.0;" width="6" x="324" y="695.6094"/><text fill="#000000" font-family="sans-serif" font-size="11" lengthAdjust="spacing" textLength="126" x="336" y="701.8198">date : OffsetDateTime</text><line style="stroke:#A80036;stroke-width:1.0;" x1="317" x2="467" y1="708.4141" y2="708.4141"/><!--MD5=[09ce52be0ee7de43c61b6e2d59bf108b]
class Person--><rect codeLine="54" fill="#FEFECE" filter="url(#fcwmon8j33yvg)" height="73.6094" id="Person" style="stroke:#A80036;stroke-width:1.5;" width="137" x="143.5" y="636"/><ellipse cx="185.95" cy="652" fill="#ADD1B2" rx="11" ry="11" style="stroke:#A80036;stroke-width:1.0;"/><path d="M188.9188,657.6406 Q188.3406,657.9375 187.7,658.0781 Q187.0594,658.2344 186.3563,658.2344 Q183.8563,658.2344 182.5281,656.5938 Q181.2156,654.9375 181.2156,651.8125 Q181.2156,648.6875 182.5281,647.0313 Q183.8563,645.375 186.3563,645.375 Q187.0594,645.375 187.7,645.5313 Q188.3563,645.6875 188.9188,645.9844 L188.9188,648.7031 Q188.2938,648.125 187.7,647.8594 Q187.1063,647.5781 186.4813,647.5781 Q185.1375,647.5781 184.45,648.6563 Q183.7625,649.7188 183.7625,651.8125 Q183.7625,653.9063 184.45,654.9844 Q185.1375,656.0469 186.4813,656.0469 Q187.1063,656.0469 187.7,655.7813 Q188.2938,655.5 188.9188,654.9219 L188.9188,657.6406 Z " fill="#000000"/><text fill="#000000" font-family="sans-serif" font-size="12" lengthAdjust="spacing" textLength="44" x="206.05" y="656.1543">Person</text><line style="stroke:#A80036;stroke-width:1.5;" x1="144.5" x2="279.5" y1="668" y2="668"/><rect fill="none" height="6" style="stroke:#C82930;stroke-width:1.0;" width="6" x="151.5" y="676"/><text fill="#000000" font-family="sans-serif" font-size="11" lengthAdjust="spacing" textLength="74" x="163.5" y="682.2104">name: String</text><rect fill="none" height="6" style="stroke:#C82930;stroke-width:1.0;" width="6" x="151.5" y="688.8047"/><text fill="#000000" font-family="sans-serif" font-size="11" lengthAdjust="spacing" textLength="111" x="163.5" y="695.0151">contactDetails: Map</text><line style="stroke:#A80036;stroke-width:1.5;" x1="144.5" x2="279.5" y1="701.6094" y2="701.6094"/><!--MD5=[42bb108f48016dea5ad13dc65ea1fb62]
class CompanyDetails--><rect codeLine="59" fill="#FEFECE" filter="url(#fcwmon8j33yvg)" height="48" id="CompanyDetails" style="stroke:#A80036;stroke-width:1.5;" width="132" x="175" y="323"/><ellipse cx="190" cy="339" fill="#ADD1B2" rx="11" ry="11" style="stroke:#A80036;stroke-width:1.0;"/><path d="M192.9688,344.6406 Q192.3906,344.9375 191.75,345.0781 Q191.1094,345.2344 190.4063,345.2344 Q187.9063,345.2344 186.5781,343.5938 Q185.2656,341.9375 185.2656,338.8125 Q185.2656,335.6875 186.5781,334.0313 Q187.9063,332.375 190.4063,332.375 Q191.1094,332.375 191.75,332.5313 Q192.4063,332.6875 192.9688,332.9844 L192.9688,335.7031 Q192.3438,335.125 191.75,334.8594 Q191.1563,334.5781 190.5313,334.5781 Q189.1875,334.5781 188.5,335.6563 Q187.8125,336.7188 187.8125,338.8125 Q187.8125,340.9063 188.5,341.9844 Q189.1875,343.0469 190.5313,343.0469 Q191.1563,343.0469 191.75,342.7813 Q192.3438,342.5 192.9688,341.9219 L192.9688,344.6406 Z " fill="#000000"/><text fill="#000000" font-family="sans-serif" font-size="12" lengthAdjust="spacing" textLength="100" x="204" y="343.1543">CompanyDetails</text><line style="stroke:#A80036;stroke-width:1.5;" x1="176" x2="306" y1="355" y2="355"/><line style="stroke:#A80036;stroke-width:1.5;" x1="176" x2="306" y1="363" y2="363"/><!--MD5=[0b7a89735ad8eabf4ad66517305e0148]
link SystemAdministrator to Review--><path codeLine="64" d="M489.3,89.15 C502.93,111.21 523.45,144.42 537.92,167.86 " fill="none" id="SystemAdministrator-to-Review" style="stroke:#A80036;stroke-width:1.0;"/><polygon fill="#A80036" points="540.55,172.11,539.2105,162.3527,537.9167,167.8596,532.4098,166.5659,540.55,172.11" style="stroke:#A80036;stroke-width:1.0;"/><polygon fill="#000000" points="524.6277,131.8203,522.3745,122.5805,517.3738,125.6695,524.6277,131.8203" style="stroke:#000000;stroke-width:1.0;"/><text fill="#000000" font-family="sans-serif" font-size="13" lengthAdjust="spacing" textLength="60" x="531" y="132.0669">Approves</text><text fill="#000000" font-family="sans-serif" font-size="13" lengthAdjust="spacing" textLength="8" x="483.8106" y="108.9478">1</text><text fill="#000000" font-family="sans-serif" font-size="13" lengthAdjust="spacing" textLength="23" x="511.2247" y="161.4199">1..*</text><!--MD5=[c838b36c62e98369184c64fec687fe27]
link Review to Producer--><path codeLine="65" d="M541.5092,231.5356 C541.5092,231.5356 525.18,262.18 514,274 C511.6,276.54 487,291.65 460.87,307.37 " fill="none" id="Review-Producer" style="stroke:#A80036;stroke-width:1.0;"/><polygon fill="#A80036" points="449.65,314.12,459.4254,312.9195,453.9375,311.5475,455.3095,306.0596,449.65,314.12" style="stroke:#A80036;stroke-width:1.0;"/><line style="stroke:#A80036;stroke-width:1.0;" x1="453.9375" x2="460.79" y1="311.5475" y2="307.42"/><polygon fill="#FFFFFF" points="546.45,220.6,540.3344,224.4209,541.5092,231.5356,547.6248,227.7148,546.45,220.6" style="stroke:#A80036;stroke-width:1.0;"/><text fill="#000000" font-family="sans-serif" font-size="13" lengthAdjust="spacing" textLength="70" x="528" y="270.0669">Created by</text><text fill="#000000" font-family="sans-serif" font-size="13" lengthAdjust="spacing" textLength="23" x="518.5628" y="240.3856">1..*</text><text fill="#000000" font-family="sans-serif" font-size="13" lengthAdjust="spacing" textLength="8" x="457.3967" y="305.7419">1</text><!--MD5=[50185331ea484df9fc244551ce917d25]
link Review to Credit--><path codeLine="66" d="M587.8642,229.6705 C587.8642,229.6705 602.11,247.69 607,257 C634.62,309.53 638.73,334.02 619,390 C585.99,483.66 507.24,569.14 451.8,620.85 " fill="none" id="Review-Credit" style="stroke:#A80036;stroke-width:1.0;"/><polygon fill="#A80036" points="442.08,629.79,451.4126,626.6432,445.7607,626.4059,445.9981,620.754,442.08,629.79" style="stroke:#A80036;stroke-width:1.0;"/><line style="stroke:#A80036;stroke-width:1.0;" x1="445.7607" x2="451.65" y1="626.4059" y2="620.99"/><polygon fill="#FFFFFF" points="579.86,220.73,580.882,227.8683,587.8642,229.6705,586.8423,222.5322,579.86,220.73" style="stroke:#A80036;stroke-width:1.0;"/><polygon fill="#000000" points="609.3574,433.2889,615.1047,425.7114,609.5531,423.7803,609.3574,433.2889" style="stroke:#000000;stroke-width:1.0;"/><text fill="#000000" font-family="sans-serif" font-size="13" lengthAdjust="spacing" textLength="72" x="620" y="433.0669">Created for</text><text fill="#000000" font-family="sans-serif" font-size="13" lengthAdjust="spacing" textLength="8" x="576.9446" y="240.5473">1</text><text fill="#000000" font-family="sans-serif" font-size="13" lengthAdjust="spacing" textLength="8" x="441.136" y="619.0704">1</text><!--MD5=[47b08513909cecda75ebaf302d1d0f50]
link SystemAdministrator to CompanyAdministrator--><path codeLine="67" d="M460.88,89.15 C450.84,105.61 437,128.29 424.69,148.48 " fill="none" id="SystemAdministrator-to-CompanyAdministrator" style="stroke:#A80036;stroke-width:1.0;"/><polygon fill="none" points="430.56,152.28,414.17,165.71,418.61,144.99,430.56,152.28" style="stroke:#A80036;stroke-width:1.0;"/><!--MD5=[17e783bf0bdd3b7e9feb83bc141da981]
link CompanyAdministrator to Producer--><path codeLine="69" d="M396,227.19 C396,243.44 396,264.2 396,283.81 " fill="none" id="CompanyAdministrator-to-Producer" style="stroke:#A80036;stroke-width:1.0;"/><polygon fill="none" points="403,283.98,396,303.98,389,283.98,403,283.98" style="stroke:#A80036;stroke-width:1.0;"/><!--MD5=[fcb1d6488fe43466ecce6ea53daef192]
link CompanyAdministrator to Company--><path codeLine="70" d="M297.4963,202.3565 C297.4963,202.3565 132.64,237.34 85,304 C62.78,335.1 70.45,354.66 85,390 C95.61,415.78 114.81,438.93 134.69,457.81 " fill="none" id="CompanyAdministrator-Company" style="stroke:#A80036;stroke-width:1.0;"/><polygon fill="#A80036" points="144.46,466.73,140.5066,457.7094,140.766,463.3603,135.1151,463.6198,144.46,466.73" style="stroke:#A80036;stroke-width:1.0;"/><line style="stroke:#A80036;stroke-width:1.0;" x1="140.766" x2="134.855" y1="463.3603" y2="457.97"/><polygon fill="#FFFFFF" points="309.41,200.92,302.9743,197.667,297.4963,202.3565,303.932,205.6095,309.41,200.92" style="stroke:#A80036;stroke-width:1.0;"/><polygon fill="#000000" points="87.3127,351.2829,94.6524,345.2347,89.6957,342.0757,87.3127,351.2829" style="stroke:#000000;stroke-width:1.0;"/><text fill="#000000" font-family="sans-serif" font-size="13" lengthAdjust="spacing" textLength="58" x="99" y="351.5669">Manages</text><text fill="#000000" font-family="sans-serif" font-size="13" lengthAdjust="spacing" textLength="7" x="294.3864" y="197.7272">*</text><text fill="#000000" font-family="sans-serif" font-size="13" lengthAdjust="spacing" textLength="8" x="126.8836" y="456.0012">1</text><!--MD5=[76bb363ccf2a88af566b84f1de6a4068]
link CompanyAdministrator to Channel--><path codeLine="71" d="M413.1067,237.9876 C413.1067,237.9876 427.77,263.75 437,274 C447.53,285.69 460.32,296.41 473.33,305.81 " fill="none" id="CompanyAdministrator-Channel" style="stroke:#A80036;stroke-width:1.0;"/><polygon fill="#A80036" points="484.27,313.39,479.1483,304.9776,480.1594,310.5434,474.5937,311.5545,484.27,313.39" style="stroke:#A80036;stroke-width:1.0;"/><line style="stroke:#A80036;stroke-width:1.0;" x1="480.1594" x2="473.58" y1="310.5434" y2="305.99"/><polygon fill="#FFFFFF" points="407.83,227.21,406.8758,234.3577,413.1067,237.9876,414.0609,230.8399,407.83,227.21" style="stroke:#A80036;stroke-width:1.0;"/><polygon fill="#000000" points="445.3199,269.3052,441.5118,260.5903,437.1166,264.493,445.3199,269.3052" style="stroke:#000000;stroke-width:1.0;"/><text fill="#000000" font-family="sans-serif" font-size="13" lengthAdjust="spacing" textLength="58" x="451" y="270.0669">Manages</text><text fill="#000000" font-family="sans-serif" font-size="13" lengthAdjust="spacing" textLength="7" x="402.47" y="246.8318">*</text><text fill="#000000" font-family="sans-serif" font-size="13" lengthAdjust="spacing" textLength="7" x="469.6857" y="305.4785">*</text><!--MD5=[71a97a490704c070434937750bde4e67]
link Producer to Program--><path codeLine="73" d="M368.99,402.49 C366.96,408.3 365.23,414.2 364,420 C361.61,431.28 365.8395,455.4304 365.8395,455.4304 " fill="none" id="Producer-Program" style="stroke:#A80036;stroke-width:1.0;"/><polygon fill="#FFFFFF" points="369.4,466.89,371.4396,459.9734,365.8395,455.4304,363.7999,462.347,369.4,466.89" style="stroke:#A80036;stroke-width:1.0;"/><polygon fill="#A80036" points="373.82,390.03,366.8383,396.9766,372.0133,394.6922,374.2978,399.8673,373.82,390.03" style="stroke:#A80036;stroke-width:1.0;"/><line style="stroke:#A80036;stroke-width:1.0;" x1="372.0133" x2="369.125" y1="394.6922" y2="402.155"/><polygon fill="#000000" points="368.703,433.5576,372.174,424.7031,366.3066,424.3539,368.703,433.5576" style="stroke:#000000;stroke-width:1.0;"/><text fill="#000000" font-family="sans-serif" font-size="13" lengthAdjust="spacing" textLength="34" x="378" y="433.0669">Owns</text><text fill="#000000" font-family="sans-serif" font-size="13" lengthAdjust="spacing" textLength="8" x="361.4839" y="410.4426">1</text><text fill="#000000" font-family="sans-serif" font-size="13" lengthAdjust="spacing" textLength="23" x="340.9653" y="455.8685">1..*</text><!--MD5=[1fdb9fc6a8b82485479cb590cd830c3d]
link Producer to Company--><path codeLine="74" d="M332.7015,392.1641 C332.7015,392.1641 307.95,410.9 297,420 C282.95,431.67 268.35,444.91 254.96,457.53 " fill="none" id="Producer-Company" style="stroke:#A80036;stroke-width:1.0;"/><polygon fill="#A80036" points="245.45,466.58,254.7249,463.2668,249.0696,463.1306,249.2059,457.4754,245.45,466.58" style="stroke:#A80036;stroke-width:1.0;"/><line style="stroke:#A80036;stroke-width:1.0;" x1="249.0696" x2="254.87" y1="463.1306" y2="457.625"/><polygon fill="#FFFFFF" points="342.38,385.07,335.176,385.3909,332.7015,392.1641,339.9054,391.8432,342.38,385.07" style="stroke:#A80036;stroke-width:1.0;"/><polygon fill="#000000" points="298.173,431.7842,306.9875,428.2126,303.2047,423.7137,298.173,431.7842" style="stroke:#000000;stroke-width:1.0;"/><text fill="#000000" font-family="sans-serif" font-size="13" lengthAdjust="spacing" textLength="42" x="311" y="433.0669">Part of</text><!--MD5=[956345c58b1ced58033be706412370fd]
link CompanyDetails to Company--><path codeLine="76" d="M216.58,382.48 C209.84,393.89 203.44,407 200,420 C197.16,430.74 196.201,454.787 196.201,454.787 " fill="none" id="CompanyDetails-Company" style="stroke:#A80036;stroke-width:1.0;"/><polygon fill="#A80036" points="196.61,466.78,200.4032,460.6472,196.201,454.787,192.4078,460.9198,196.61,466.78" style="stroke:#A80036;stroke-width:1.0;"/><polygon fill="#A80036" points="223.61,371.29,215.4371,376.7858,220.9516,375.5247,222.2127,381.0392,223.61,371.29" style="stroke:#A80036;stroke-width:1.0;"/><line style="stroke:#A80036;stroke-width:1.0;" x1="220.9516" x2="216.695" y1="375.5247" y2="382.3"/><text fill="#000000" font-family="sans-serif" font-size="13" lengthAdjust="spacing" textLength="25" x="201" y="433.0669">Has</text><text fill="#000000" font-family="sans-serif" font-size="13" lengthAdjust="spacing" textLength="8" x="210.3962" y="391.1219">1</text><text fill="#000000" font-family="sans-serif" font-size="13" lengthAdjust="spacing" textLength="8" x="187.019" y="456.0589">1</text><!--MD5=[162bd9f14b116b1620a5e64ad84e0518]
link Channel to Program--><path codeLine="78" d="M482.36,392.42 C472.09,401.07 461.88,410.43 453,420 C442.95,430.82 423.9732,456.8402 423.9732,456.8402 " fill="none" id="Channel-Program" style="stroke:#A80036;stroke-width:1.0;"/><polygon fill="#FFFFFF" points="417.25,466.78,423.9248,464.0512,423.9732,456.8402,417.2983,459.5691,417.25,466.78" style="stroke:#A80036;stroke-width:1.0;"/><polygon fill="#A80036" points="492.61,384.03,483.1114,386.6333,488.7402,387.1962,488.1773,392.825,492.61,384.03" style="stroke:#A80036;stroke-width:1.0;"/><line style="stroke:#A80036;stroke-width:1.0;" x1="488.7402" x2="482.55" y1="387.1962" y2="392.26"/><polygon fill="#000000" points="454.6422,432.2712,462.8941,427.5428,458.5389,423.5955,454.6422,432.2712" style="stroke:#000000;stroke-width:1.0;"/><text fill="#000000" font-family="sans-serif" font-size="13" lengthAdjust="spacing" textLength="41" x="467" y="433.0669">Shows</text><text fill="#000000" font-family="sans-serif" font-size="13" lengthAdjust="spacing" textLength="8" x="475.2617" y="403.7955">1</text><text fill="#000000" font-family="sans-serif" font-size="13" lengthAdjust="spacing" textLength="23" x="396.3555" y="456.0589">1..*</text><!--MD5=[286637dcaa03c9212d91116f113cc620]
link Credit to CreditRole--><path codeLine="80" d="M480.09,673 C480.09,673 514.43,673 529.8,673 " fill="none" id="Credit-CreditRole" style="stroke:#A80036;stroke-width:1.0;"/><polygon fill="#A80036" points="542.89,673,533.89,669,537.89,673,533.89,677,542.89,673" style="stroke:#A80036;stroke-width:1.0;"/><line style="stroke:#A80036;stroke-width:1.0;" x1="537.89" x2="529.89" y1="673" y2="673"/><polygon fill="#FFFFFF" points="468.09,673,474.09,677,480.09,673,474.09,669,468.09,673" style="stroke:#A80036;stroke-width:1.0;"/><polygon fill="#000000" points="495.5,661.5664,486.4549,658.6275,486.4549,664.5053,495.5,661.5664" style="stroke:#000000;stroke-width:1.0;"/><text fill="#000000" font-family="sans-serif" font-size="13" lengthAdjust="spacing" textLength="25" x="499.5" y="666.0669">Has</text><text fill="#000000" font-family="sans-serif" font-size="13" lengthAdjust="spacing" textLength="8" x="475.9739" y="669.3148">1</text><text fill="#000000" font-family="sans-serif" font-size="13" lengthAdjust="spacing" textLength="23" x="511.8799" y="686.0968">1..*</text><!--MD5=[2188ce9f683ca3d287b5c8641e215b9c]
link Program to Credit--><path codeLine="82" d="M392,566.55 C392,582.79 392,617.98 392,617.98 " fill="none" id="Program-Credit" style="stroke:#A80036;stroke-width:1.0;"/><polygon fill="#FFFFFF" points="392,629.98,396,623.98,392,617.98,388,623.98,392,629.98" style="stroke:#A80036;stroke-width:1.0;"/><polygon fill="#A80036" points="392,553.3,388,562.3,392,558.3,396,562.3,392,553.3" style="stroke:#A80036;stroke-width:1.0;"/><line style="stroke:#A80036;stroke-width:1.0;" x1="392" x2="392" y1="558.3" y2="566.3"/><polygon fill="#000000" points="397,596.5664,399.9389,587.5213,394.0611,587.5213,397,596.5664" style="stroke:#000000;stroke-width:1.0;"/><text fill="#000000" font-family="sans-serif" font-size="13" lengthAdjust="spacing" textLength="25" x="406" y="596.0669">Has</text><text fill="#000000" font-family="sans-serif" font-size="13" lengthAdjust="spacing" textLength="8" x="383.3625" y="573.4407">1</text><text fill="#000000" font-family="sans-serif" font-size="13" lengthAdjust="spacing" textLength="23" x="367.1672" y="618.9729">1..*</text><!--MD5=[8b34ded8b26f140bd7ef8771bfdd97a7]
link Person to Credit--><path codeLine="84" d="M293.78,673 C296.76,673 303.82,673 303.82,673 " fill="none" id="Person-Credit" style="stroke:#A80036;stroke-width:1.0;"/><polygon fill="#FFFFFF" points="315.82,673,309.82,669,303.82,673,309.82,677,315.82,673" style="stroke:#A80036;stroke-width:1.0;"/><polygon fill="#A80036" points="280.55,673,289.55,677,285.55,673,289.55,669,280.55,673" style="stroke:#A80036;stroke-width:1.0;"/><line style="stroke:#A80036;stroke-width:1.0;" x1="285.55" x2="293.55" y1="673" y2="673"/><text fill="#000000" font-family="sans-serif" font-size="13" lengthAdjust="spacing" textLength="8" x="288.4852" y="669.2752">1</text><text fill="#000000" font-family="sans-serif" font-size="13" lengthAdjust="spacing" textLength="8" x="299.9273" y="669.3148">1</text><!--MD5=[234db14ea68cdc67f4f724de84b19515]
@startuml
'https://plantuml.com/class-diagram

package "domain" {
    'Personer her
    class Producer {
        - email : String
        - name : String
        - image : String
        - -
    }

    class CompanyAdministrator {
        - company: Company
    }

    class SystemAdministrator {
    }

    'Naeste
    class Company {
        - regNo : int
        - name : String
        - manager : String
        - -
    }

    class Channel {
        - name: String
        - category: String
        - -
    }

    class Program {
        - title: String
        -startTime: long
        -endTime: long
        - -
    }

    class CreditRole {
        - title : String
    }

    class Review {
    }

    class Credit {
        - name : String
        - role : CreditRole
        - date : OffsetDateTime
        - -
    }

    class Person {
        -name: String
        -contactDetails: Map
    }

    class CompanyDetails {

    }
}

SystemAdministrator "1" - -> "1..*" Review : "Approves >"
Review "1..*" o- -> "1" Producer : "Created by"
Review "1" o- -> "1" Credit : "Created for >"
SystemAdministrator -|> CompanyAdministrator

CompanyAdministrator -|> Producer
CompanyAdministrator "*" o- -> "1" Company : "Manages >"
CompanyAdministrator "*" o- -> "*" Channel : "Manages >"

Producer "1" <- -o "1..*" Program : "Owns >"
Producer o- -> Company : "Part of >"

CompanyDetails "1" <- -* "1" Company : Has

Channel "1" <- -o "1..*" Program : "Shows >"

Credit "1" o-> "1..*" CreditRole : "Has >"

Program "1" <- -o "1..*" Credit : "Has >"

Person "1" <-o "1" Credit

@enduml

@startuml

package "domain" {
    class Producer {
        - email : String
        - name : String
        - image : String
        - -
    }

    class CompanyAdministrator {
        - company: Company
    }

    class SystemAdministrator {
    }

    class Company {
        - regNo : int
        - name : String
        - manager : String
        - -
    }

    class Channel {
        - name: String
        - category: String
        - -
    }

    class Program {
        - title: String
        -startTime: long
        -endTime: long
        - -
    }

    class CreditRole {
        - title : String
    }

    class Review {
    }

    class Credit {
        - name : String
        - role : CreditRole
        - date : OffsetDateTime
        - -
    }

    class Person {
        -name: String
        -contactDetails: Map
    }

    class CompanyDetails {

    }
}

SystemAdministrator "1" - -> "1..*" Review : "Approves >"
Review "1..*" o- -> "1" Producer : "Created by"
Review "1" o- -> "1" Credit : "Created for >"
SystemAdministrator -|> CompanyAdministrator

CompanyAdministrator -|> Producer
CompanyAdministrator "*" o- -> "1" Company : "Manages >"
CompanyAdministrator "*" o- -> "*" Channel : "Manages >"

Producer "1" <- -o "1..*" Program : "Owns >"
Producer o- -> Company : "Part of >"

CompanyDetails "1" <- -* "1" Company : Has

Channel "1" <- -o "1..*" Program : "Shows >"

Credit "1" o-> "1..*" CreditRole : "Has >"

Program "1" <- -o "1..*" Credit : "Has >"

Person "1" <-o "1" Credit

@enduml

PlantUML version 1.2021.6(Fri May 14 07:09:51 UTC 2021)
(GPL source distribution)
Java Runtime: OpenJDK Runtime Environment
JVM: OpenJDK 64-Bit Server VM
Default Encoding: UTF-8
Language: en
Country: null
--></g></svg>