<?xml version="1.0" encoding="UTF-8" standalone="no"?><svg xmlns="http://www.w3.org/2000/svg" xmlns:xlink="http://www.w3.org/1999/xlink" contentScriptType="application/ecmascript" contentStyleType="text/css" height="782px" preserveAspectRatio="none" style="width:1005px;height:782px;" version="1.1" viewBox="0 0 1005 782" width="1005px" zoomAndPan="magnify"><defs><filter height="300%" id="f1pz5a9wd39kvn" width="300%" x="-1" y="-1"><feGaussianBlur result="blurOut" stdDeviation="2.0"/><feColorMatrix in="blurOut" result="blurOut2" type="matrix" values="0 0 0 0 0 0 0 0 0 0 0 0 0 0 0 0 0 0 .4 0"/><feOffset dx="4.0" dy="4.0" in="blurOut2" result="blurOut3"/><feBlend in="SourceGraphic" in2="blurOut3" mode="normal"/></filter></defs><g><!--MD5=[47dee6ed36b8288cc11ad793264226cb]
cluster Domænemodel--><polygon fill="#FFFFFF" filter="url(#f1pz5a9wd39kvn)" points="16,6,141,6,148,28.2969,988,28.2969,988,775,16,775,16,6" style="stroke:#000000;stroke-width:1.5;"/><line style="stroke:#000000;stroke-width:1.5;" x1="16" x2="148" y1="28.2969" y2="28.2969"/><text fill="#000000" font-family="sans-serif" font-size="14" font-weight="bold" lengthAdjust="spacing" textLength="119" x="20" y="20.9951">Domænemodel</text><!--MD5=[09e3160644ea82bed9dc2bfdc7bfe5c8]
class Producer--><rect codeLine="5" fill="#FEFECE" filter="url(#f1pz5a9wd39kvn)" height="137.6328" id="Producer" style="stroke:#A80036;stroke-width:1.5;" width="225" x="436.5" y="41"/><ellipse cx="516.25" cy="57" fill="#ADD1B2" rx="11" ry="11" style="stroke:#A80036;stroke-width:1.0;"/><path d="M519.2188,62.6406 Q518.6406,62.9375 518,63.0781 Q517.3594,63.2344 516.6563,63.2344 Q514.1563,63.2344 512.8281,61.5938 Q511.5156,59.9375 511.5156,56.8125 Q511.5156,53.6875 512.8281,52.0313 Q514.1563,50.375 516.6563,50.375 Q517.3594,50.375 518,50.5313 Q518.6563,50.6875 519.2188,50.9844 L519.2188,53.7031 Q518.5938,53.125 518,52.8594 Q517.4063,52.5781 516.7813,52.5781 Q515.4375,52.5781 514.75,53.6563 Q514.0625,54.7188 514.0625,56.8125 Q514.0625,58.9063 514.75,59.9844 Q515.4375,61.0469 516.7813,61.0469 Q517.4063,61.0469 518,60.7813 Q518.5938,60.5 519.2188,59.9219 L519.2188,62.6406 Z " fill="#000000"/><text fill="#000000" font-family="sans-serif" font-size="12" lengthAdjust="spacing" textLength="57" x="536.75" y="61.1543">Producer</text><line style="stroke:#A80036;stroke-width:1.5;" x1="437.5" x2="660.5" y1="73" y2="73"/><rect fill="none" height="6" style="stroke:#C82930;stroke-width:1.0;" width="6" x="444.5" y="81"/><text fill="#000000" font-family="sans-serif" font-size="11" lengthAdjust="spacing" textLength="77" x="456.5" y="87.2104">email : String</text><rect fill="none" height="6" style="stroke:#C82930;stroke-width:1.0;" width="6" x="444.5" y="93.8047"/><text fill="#000000" font-family="sans-serif" font-size="11" lengthAdjust="spacing" textLength="78" x="456.5" y="100.0151">name : String</text><rect fill="none" height="6" style="stroke:#C82930;stroke-width:1.0;" width="6" x="444.5" y="106.6094"/><text fill="#000000" font-family="sans-serif" font-size="11" lengthAdjust="spacing" textLength="81" x="456.5" y="112.8198">image : String</text><line style="stroke:#A80036;stroke-width:1.0;" x1="437.5" x2="660.5" y1="119.4141" y2="119.4141"/><ellipse cx="447.5" cy="130.4141" fill="#84BE84" rx="3" ry="3" style="stroke:#038048;stroke-width:1.0;"/><text fill="#000000" font-family="sans-serif" font-size="11" lengthAdjust="spacing" textLength="105" x="456.5" y="133.6245">getName() : String</text><ellipse cx="447.5" cy="143.2188" fill="#84BE84" rx="3" ry="3" style="stroke:#038048;stroke-width:1.0;"/><text fill="#000000" font-family="sans-serif" font-size="11" lengthAdjust="spacing" textLength="103" x="456.5" y="146.4292">getEmail() : String</text><ellipse cx="447.5" cy="156.0234" fill="#84BE84" rx="3" ry="3" style="stroke:#038048;stroke-width:1.0;"/><text fill="#000000" font-family="sans-serif" font-size="11" lengthAdjust="spacing" textLength="103" x="456.5" y="159.2339">getImage(): String</text><ellipse cx="447.5" cy="168.8281" fill="#84BE84" rx="3" ry="3" style="stroke:#038048;stroke-width:1.0;"/><text fill="#000000" font-family="sans-serif" font-size="11" lengthAdjust="spacing" textLength="199" x="456.5" y="172.0386">validatePassword(String) : boolean</text><!--MD5=[682cceb3213bcbb637d022cca5daab3c]
class CompanyAdministrator--><rect codeLine="16" fill="#FEFECE" filter="url(#f1pz5a9wd39kvn)" height="60.8047" id="CompanyAdministrator" style="stroke:#A80036;stroke-width:1.5;" width="173" x="228.5" y="79.5"/><ellipse cx="243.5" cy="95.5" fill="#ADD1B2" rx="11" ry="11" style="stroke:#A80036;stroke-width:1.0;"/><path d="M246.4688,101.1406 Q245.8906,101.4375 245.25,101.5781 Q244.6094,101.7344 243.9063,101.7344 Q241.4063,101.7344 240.0781,100.0938 Q238.7656,98.4375 238.7656,95.3125 Q238.7656,92.1875 240.0781,90.5313 Q241.4063,88.875 243.9063,88.875 Q244.6094,88.875 245.25,89.0313 Q245.9063,89.1875 246.4688,89.4844 L246.4688,92.2031 Q245.8438,91.625 245.25,91.3594 Q244.6563,91.0781 244.0313,91.0781 Q242.6875,91.0781 242,92.1563 Q241.3125,93.2188 241.3125,95.3125 Q241.3125,97.4063 242,98.4844 Q242.6875,99.5469 244.0313,99.5469 Q244.6563,99.5469 245.25,99.2813 Q245.8438,99 246.4688,98.4219 L246.4688,101.1406 Z " fill="#000000"/><text fill="#000000" font-family="sans-serif" font-size="12" lengthAdjust="spacing" textLength="141" x="257.5" y="99.6543">CompanyAdministrator</text><line style="stroke:#A80036;stroke-width:1.5;" x1="229.5" x2="400.5" y1="111.5" y2="111.5"/><rect fill="none" height="6" style="stroke:#C82930;stroke-width:1.0;" width="6" x="236.5" y="119.5"/><text fill="#000000" font-family="sans-serif" font-size="11" lengthAdjust="spacing" textLength="112" x="248.5" y="125.7104">company: Company</text><line style="stroke:#A80036;stroke-width:1.5;" x1="229.5" x2="400.5" y1="132.3047" y2="132.3047"/><!--MD5=[9e0344aee5137892075360975b58a39b]
class SystemAdministrator--><rect codeLine="20" fill="#FEFECE" filter="url(#f1pz5a9wd39kvn)" height="48" id="SystemAdministrator" style="stroke:#A80036;stroke-width:1.5;" width="161" x="32.5" y="86"/><ellipse cx="47.5" cy="102" fill="#ADD1B2" rx="11" ry="11" style="stroke:#A80036;stroke-width:1.0;"/><path d="M50.4688,107.6406 Q49.8906,107.9375 49.25,108.0781 Q48.6094,108.2344 47.9063,108.2344 Q45.4063,108.2344 44.0781,106.5938 Q42.7656,104.9375 42.7656,101.8125 Q42.7656,98.6875 44.0781,97.0313 Q45.4063,95.375 47.9063,95.375 Q48.6094,95.375 49.25,95.5313 Q49.9063,95.6875 50.4688,95.9844 L50.4688,98.7031 Q49.8438,98.125 49.25,97.8594 Q48.6563,97.5781 48.0313,97.5781 Q46.6875,97.5781 46,98.6563 Q45.3125,99.7188 45.3125,101.8125 Q45.3125,103.9063 46,104.9844 Q46.6875,106.0469 48.0313,106.0469 Q48.6563,106.0469 49.25,105.7813 Q49.8438,105.5 50.4688,104.9219 L50.4688,107.6406 Z " fill="#000000"/><text fill="#000000" font-family="sans-serif" font-size="12" lengthAdjust="spacing" textLength="129" x="61.5" y="106.1543">SystemAdministrator</text><line style="stroke:#A80036;stroke-width:1.5;" x1="33.5" x2="192.5" y1="118" y2="118"/><line style="stroke:#A80036;stroke-width:1.5;" x1="33.5" x2="192.5" y1="126" y2="126"/><!--MD5=[02e4b9b7573f1156f41e60aa5b4e25a4]
class Company--><rect codeLine="24" fill="#FEFECE" filter="url(#f1pz5a9wd39kvn)" height="124.8281" id="Company" style="stroke:#A80036;stroke-width:1.5;" width="147" x="331.5" y="256"/><ellipse cx="372.6" cy="272" fill="#ADD1B2" rx="11" ry="11" style="stroke:#A80036;stroke-width:1.0;"/><path d="M375.5688,277.6406 Q374.9906,277.9375 374.35,278.0781 Q373.7094,278.2344 373.0063,278.2344 Q370.5063,278.2344 369.1781,276.5938 Q367.8656,274.9375 367.8656,271.8125 Q367.8656,268.6875 369.1781,267.0313 Q370.5063,265.375 373.0063,265.375 Q373.7094,265.375 374.35,265.5313 Q375.0063,265.6875 375.5688,265.9844 L375.5688,268.7031 Q374.9438,268.125 374.35,267.8594 Q373.7563,267.5781 373.1313,267.5781 Q371.7875,267.5781 371.1,268.6563 Q370.4125,269.7188 370.4125,271.8125 Q370.4125,273.9063 371.1,274.9844 Q371.7875,276.0469 373.1313,276.0469 Q373.7563,276.0469 374.35,275.7813 Q374.9438,275.5 375.5688,274.9219 L375.5688,277.6406 Z " fill="#000000"/><text fill="#000000" font-family="sans-serif" font-size="12" lengthAdjust="spacing" textLength="57" x="392.4" y="276.1543">Company</text><line style="stroke:#A80036;stroke-width:1.5;" x1="332.5" x2="477.5" y1="288" y2="288"/><rect fill="none" height="6" style="stroke:#C82930;stroke-width:1.0;" width="6" x="339.5" y="296"/><text fill="#000000" font-family="sans-serif" font-size="11" lengthAdjust="spacing" textLength="60" x="351.5" y="302.2104">regNo : int</text><rect fill="none" height="6" style="stroke:#C82930;stroke-width:1.0;" width="6" x="339.5" y="308.8047"/><text fill="#000000" font-family="sans-serif" font-size="11" lengthAdjust="spacing" textLength="78" x="351.5" y="315.0151">name : String</text><rect fill="none" height="6" style="stroke:#C82930;stroke-width:1.0;" width="6" x="339.5" y="321.6094"/><text fill="#000000" font-family="sans-serif" font-size="11" lengthAdjust="spacing" textLength="97" x="351.5" y="327.8198">manager : String</text><line style="stroke:#A80036;stroke-width:1.0;" x1="332.5" x2="477.5" y1="334.4141" y2="334.4141"/><ellipse cx="342.5" cy="345.4141" fill="#84BE84" rx="3" ry="3" style="stroke:#038048;stroke-width:1.0;"/><text fill="#000000" font-family="sans-serif" font-size="11" lengthAdjust="spacing" textLength="88" x="351.5" y="348.6245">getRegNo() : int</text><ellipse cx="342.5" cy="358.2188" fill="#84BE84" rx="3" ry="3" style="stroke:#038048;stroke-width:1.0;"/><text fill="#000000" font-family="sans-serif" font-size="11" lengthAdjust="spacing" textLength="105" x="351.5" y="361.4292">getName() : String</text><ellipse cx="342.5" cy="371.0234" fill="#84BE84" rx="3" ry="3" style="stroke:#038048;stroke-width:1.0;"/><text fill="#000000" font-family="sans-serif" font-size="11" lengthAdjust="spacing" textLength="121" x="351.5" y="374.2339">getManager() : String</text><!--MD5=[1e4e6ac1845d89d680410515caa0c0ac]
class Channel--><rect codeLine="34" fill="#FEFECE" filter="url(#f1pz5a9wd39kvn)" height="99.2188" id="Channel" style="stroke:#A80036;stroke-width:1.5;" width="149" x="147.5" y="269"/><ellipse cx="192.25" cy="285" fill="#ADD1B2" rx="11" ry="11" style="stroke:#A80036;stroke-width:1.0;"/><path d="M195.2188,290.6406 Q194.6406,290.9375 194,291.0781 Q193.3594,291.2344 192.6563,291.2344 Q190.1563,291.2344 188.8281,289.5938 Q187.5156,287.9375 187.5156,284.8125 Q187.5156,281.6875 188.8281,280.0313 Q190.1563,278.375 192.6563,278.375 Q193.3594,278.375 194,278.5313 Q194.6563,278.6875 195.2188,278.9844 L195.2188,281.7031 Q194.5938,281.125 194,280.8594 Q193.4063,280.5781 192.7813,280.5781 Q191.4375,280.5781 190.75,281.6563 Q190.0625,282.7188 190.0625,284.8125 Q190.0625,286.9063 190.75,287.9844 Q191.4375,289.0469 192.7813,289.0469 Q193.4063,289.0469 194,288.7813 Q194.5938,288.5 195.2188,287.9219 L195.2188,290.6406 Z " fill="#000000"/><text fill="#000000" font-family="sans-serif" font-size="12" lengthAdjust="spacing" textLength="51" x="212.75" y="289.1543">Channel</text><line style="stroke:#A80036;stroke-width:1.5;" x1="148.5" x2="295.5" y1="301" y2="301"/><rect fill="none" height="6" style="stroke:#C82930;stroke-width:1.0;" width="6" x="155.5" y="309"/><text fill="#000000" font-family="sans-serif" font-size="11" lengthAdjust="spacing" textLength="74" x="167.5" y="315.2104">name: String</text><rect fill="none" height="6" style="stroke:#C82930;stroke-width:1.0;" width="6" x="155.5" y="321.8047"/><text fill="#000000" font-family="sans-serif" font-size="11" lengthAdjust="spacing" textLength="91" x="167.5" y="328.0151">category: String</text><line style="stroke:#A80036;stroke-width:1.0;" x1="148.5" x2="295.5" y1="334.6094" y2="334.6094"/><ellipse cx="158.5" cy="345.6094" fill="#84BE84" rx="3" ry="3" style="stroke:#038048;stroke-width:1.0;"/><text fill="#000000" font-family="sans-serif" font-size="11" lengthAdjust="spacing" textLength="105" x="167.5" y="348.8198">getName() : String</text><ellipse cx="158.5" cy="358.4141" fill="#84BE84" rx="3" ry="3" style="stroke:#038048;stroke-width:1.0;"/><text fill="#000000" font-family="sans-serif" font-size="11" lengthAdjust="spacing" textLength="123" x="167.5" y="361.6245">getCategory() : String</text><!--MD5=[175f95e045c1a44aed0b30df3abe0e5c]
class Program--><rect codeLine="42" fill="#FEFECE" filter="url(#f1pz5a9wd39kvn)" height="99.2188" id="Program" style="stroke:#A80036;stroke-width:1.5;" width="122" x="166" y="458"/><ellipse cx="197.65" cy="474" fill="#ADD1B2" rx="11" ry="11" style="stroke:#A80036;stroke-width:1.0;"/><path d="M200.6188,479.6406 Q200.0406,479.9375 199.4,480.0781 Q198.7594,480.2344 198.0563,480.2344 Q195.5563,480.2344 194.2281,478.5938 Q192.9156,476.9375 192.9156,473.8125 Q192.9156,470.6875 194.2281,469.0313 Q195.5563,467.375 198.0563,467.375 Q198.7594,467.375 199.4,467.5313 Q200.0563,467.6875 200.6188,467.9844 L200.6188,470.7031 Q199.9938,470.125 199.4,469.8594 Q198.8063,469.5781 198.1813,469.5781 Q196.8375,469.5781 196.15,470.6563 Q195.4625,471.7188 195.4625,473.8125 Q195.4625,475.9063 196.15,476.9844 Q196.8375,478.0469 198.1813,478.0469 Q198.8063,478.0469 199.4,477.7813 Q199.9938,477.5 200.6188,476.9219 L200.6188,479.6406 Z " fill="#000000"/><text fill="#000000" font-family="sans-serif" font-size="12" lengthAdjust="spacing" textLength="53" x="215.35" y="478.1543">Program</text><line style="stroke:#A80036;stroke-width:1.5;" x1="167" x2="287" y1="490" y2="490"/><rect fill="none" height="6" style="stroke:#C82930;stroke-width:1.0;" width="6" x="174" y="498"/><text fill="#000000" font-family="sans-serif" font-size="11" lengthAdjust="spacing" textLength="63" x="186" y="504.2104">title: String</text><rect fill="none" height="6" style="stroke:#C82930;stroke-width:1.0;" width="6" x="174" y="510.8047"/><text fill="#000000" font-family="sans-serif" font-size="11" lengthAdjust="spacing" textLength="87" x="186" y="517.0151">startTime: long</text><rect fill="none" height="6" style="stroke:#C82930;stroke-width:1.0;" width="6" x="174" y="523.6094"/><text fill="#000000" font-family="sans-serif" font-size="11" lengthAdjust="spacing" textLength="81" x="186" y="529.8198">endTime: long</text><line style="stroke:#A80036;stroke-width:1.0;" x1="167" x2="287" y1="536.4141" y2="536.4141"/><ellipse cx="177" cy="547.4141" fill="#84BE84" rx="3" ry="3" style="stroke:#038048;stroke-width:1.0;"/><text fill="#000000" font-family="sans-serif" font-size="11" lengthAdjust="spacing" textLength="96" x="186" y="550.6245">getTitle() : String</text><!--MD5=[a6db4508d99df11b61134feed24d590d]
class CreditRole--><rect codeLine="50" fill="#FEFECE" filter="url(#f1pz5a9wd39kvn)" height="60.8047" id="CreditRole" style="stroke:#A80036;stroke-width:1.5;" width="96" x="320" y="666"/><ellipse cx="335" cy="682" fill="#ADD1B2" rx="11" ry="11" style="stroke:#A80036;stroke-width:1.0;"/><path d="M337.9688,687.6406 Q337.3906,687.9375 336.75,688.0781 Q336.1094,688.2344 335.4063,688.2344 Q332.9063,688.2344 331.5781,686.5938 Q330.2656,684.9375 330.2656,681.8125 Q330.2656,678.6875 331.5781,677.0313 Q332.9063,675.375 335.4063,675.375 Q336.1094,675.375 336.75,675.5313 Q337.4063,675.6875 337.9688,675.9844 L337.9688,678.7031 Q337.3438,678.125 336.75,677.8594 Q336.1563,677.5781 335.5313,677.5781 Q334.1875,677.5781 333.5,678.6563 Q332.8125,679.7188 332.8125,681.8125 Q332.8125,683.9063 333.5,684.9844 Q334.1875,686.0469 335.5313,686.0469 Q336.1563,686.0469 336.75,685.7813 Q337.3438,685.5 337.9688,684.9219 L337.9688,687.6406 Z " fill="#000000"/><text fill="#000000" font-family="sans-serif" font-size="12" lengthAdjust="spacing" textLength="64" x="349" y="686.1543">CreditRole</text><line style="stroke:#A80036;stroke-width:1.5;" x1="321" x2="415" y1="698" y2="698"/><rect fill="none" height="6" style="stroke:#C82930;stroke-width:1.0;" width="6" x="328" y="706"/><text fill="#000000" font-family="sans-serif" font-size="11" lengthAdjust="spacing" textLength="67" x="340" y="712.2104">title : String</text><line style="stroke:#A80036;stroke-width:1.5;" x1="321" x2="415" y1="718.8047" y2="718.8047"/><!--MD5=[a818d4fdb263ce6d3ad23111dcf8be33]
class Credit--><rect codeLine="55" fill="#FEFECE" filter="url(#f1pz5a9wd39kvn)" height="124.8281" id="Credit" style="stroke:#A80036;stroke-width:1.5;" width="179" x="66.5" y="634"/><ellipse cx="133.25" cy="650" fill="#ADD1B2" rx="11" ry="11" style="stroke:#A80036;stroke-width:1.0;"/><path d="M136.2188,655.6406 Q135.6406,655.9375 135,656.0781 Q134.3594,656.2344 133.6563,656.2344 Q131.1563,656.2344 129.8281,654.5938 Q128.5156,652.9375 128.5156,649.8125 Q128.5156,646.6875 129.8281,645.0313 Q131.1563,643.375 133.6563,643.375 Q134.3594,643.375 135,643.5313 Q135.6563,643.6875 136.2188,643.9844 L136.2188,646.7031 Q135.5938,646.125 135,645.8594 Q134.4063,645.5781 133.7813,645.5781 Q132.4375,645.5781 131.75,646.6563 Q131.0625,647.7188 131.0625,649.8125 Q131.0625,651.9063 131.75,652.9844 Q132.4375,654.0469 133.7813,654.0469 Q134.4063,654.0469 135,653.7813 Q135.5938,653.5 136.2188,652.9219 L136.2188,655.6406 Z " fill="#000000"/><text fill="#000000" font-family="sans-serif" font-size="12" lengthAdjust="spacing" textLength="37" x="153.75" y="654.1543">Credit</text><line style="stroke:#A80036;stroke-width:1.5;" x1="67.5" x2="244.5" y1="666" y2="666"/><rect fill="none" height="6" style="stroke:#C82930;stroke-width:1.0;" width="6" x="74.5" y="674"/><text fill="#000000" font-family="sans-serif" font-size="11" lengthAdjust="spacing" textLength="78" x="86.5" y="680.2104">name : String</text><rect fill="none" height="6" style="stroke:#C82930;stroke-width:1.0;" width="6" x="74.5" y="686.8047"/><text fill="#000000" font-family="sans-serif" font-size="11" lengthAdjust="spacing" textLength="92" x="86.5" y="693.0151">role : CreditRole</text><rect fill="none" height="6" style="stroke:#C82930;stroke-width:1.0;" width="6" x="74.5" y="699.6094"/><text fill="#000000" font-family="sans-serif" font-size="11" lengthAdjust="spacing" textLength="126" x="86.5" y="705.8198">date : OffsetDateTime</text><line style="stroke:#A80036;stroke-width:1.0;" x1="67.5" x2="244.5" y1="712.4141" y2="712.4141"/><ellipse cx="77.5" cy="723.4141" fill="#84BE84" rx="3" ry="3" style="stroke:#038048;stroke-width:1.0;"/><text fill="#000000" font-family="sans-serif" font-size="11" lengthAdjust="spacing" textLength="105" x="86.5" y="726.6245">getName() : String</text><ellipse cx="77.5" cy="736.2188" fill="#84BE84" rx="3" ry="3" style="stroke:#038048;stroke-width:1.0;"/><text fill="#000000" font-family="sans-serif" font-size="11" lengthAdjust="spacing" textLength="120" x="86.5" y="739.4292">getRole() : CreditRole</text><ellipse cx="77.5" cy="749.0234" fill="#84BE84" rx="3" ry="3" style="stroke:#038048;stroke-width:1.0;"/><text fill="#000000" font-family="sans-serif" font-size="11" lengthAdjust="spacing" textLength="153" x="86.5" y="752.2339">getDate() : OffsetDateTime</text><!--MD5=[9878be2e161685c2af42b541dee0842e]
class AuthController--><rect codeLine="66" fill="#FEFECE" filter="url(#f1pz5a9wd39kvn)" height="73.6094" id="AuthController" style="stroke:#A80036;stroke-width:1.5;" width="171" x="800.5" y="73"/><ellipse cx="837.55" cy="89" fill="#ADD1B2" rx="11" ry="11" style="stroke:#A80036;stroke-width:1.0;"/><path d="M840.5188,94.6406 Q839.9406,94.9375 839.3,95.0781 Q838.6594,95.2344 837.9563,95.2344 Q835.4563,95.2344 834.1281,93.5938 Q832.8156,91.9375 832.8156,88.8125 Q832.8156,85.6875 834.1281,84.0313 Q835.4563,82.375 837.9563,82.375 Q838.6594,82.375 839.3,82.5313 Q839.9563,82.6875 840.5188,82.9844 L840.5188,85.7031 Q839.8938,85.125 839.3,84.8594 Q838.7063,84.5781 838.0813,84.5781 Q836.7375,84.5781 836.05,85.6563 Q835.3625,86.7188 835.3625,88.8125 Q835.3625,90.9063 836.05,91.9844 Q836.7375,93.0469 838.0813,93.0469 Q838.7063,93.0469 839.3,92.7813 Q839.8938,92.5 840.5188,91.9219 L840.5188,94.6406 Z " fill="#000000"/><text fill="#000000" font-family="sans-serif" font-size="12" lengthAdjust="spacing" textLength="90" x="856.45" y="93.1543">AuthController</text><line style="stroke:#A80036;stroke-width:1.5;" x1="801.5" x2="970.5" y1="105" y2="105"/><line style="stroke:#A80036;stroke-width:1.0;" x1="801.5" x2="970.5" y1="113" y2="113"/><ellipse cx="811.5" cy="124" fill="#84BE84" rx="3" ry="3" style="stroke:#038048;stroke-width:1.0;"/><text fill="#000000" font-family="sans-serif" font-size="11" lengthAdjust="spacing" textLength="140" x="820.5" y="127.2104">resetPassword() : String</text><ellipse cx="811.5" cy="136.8047" fill="#84BE84" rx="3" ry="3" style="stroke:#038048;stroke-width:1.0;"/><text fill="#000000" font-family="sans-serif" font-size="11" lengthAdjust="spacing" textLength="145" x="820.5" y="140.0151">validateLogin() : Producer</text><!--MD5=[62db8e4c2d9e0408f5650e8d9a685ff5]
class DB--><rect codeLine="73" fill="#FEFECE" filter="url(#f1pz5a9wd39kvn)" height="48" id="DB" style="stroke:#A80036;stroke-width:1.5;" width="49" x="633.5" y="294.5"/><ellipse cx="648.5" cy="310.5" fill="#ADD1B2" rx="11" ry="11" style="stroke:#A80036;stroke-width:1.0;"/><path d="M651.4688,316.1406 Q650.8906,316.4375 650.25,316.5781 Q649.6094,316.7344 648.9063,316.7344 Q646.4063,316.7344 645.0781,315.0938 Q643.7656,313.4375 643.7656,310.3125 Q643.7656,307.1875 645.0781,305.5313 Q646.4063,303.875 648.9063,303.875 Q649.6094,303.875 650.25,304.0313 Q650.9063,304.1875 651.4688,304.4844 L651.4688,307.2031 Q650.8438,306.625 650.25,306.3594 Q649.6563,306.0781 649.0313,306.0781 Q647.6875,306.0781 647,307.1563 Q646.3125,308.2188 646.3125,310.3125 Q646.3125,312.4063 647,313.4844 Q647.6875,314.5469 649.0313,314.5469 Q649.6563,314.5469 650.25,314.2813 Q650.8438,314 651.4688,313.4219 L651.4688,316.1406 Z " fill="#000000"/><text fill="#000000" font-family="sans-serif" font-size="12" lengthAdjust="spacing" textLength="17" x="662.5" y="314.6543">DB</text><line style="stroke:#A80036;stroke-width:1.5;" x1="634.5" x2="681.5" y1="326.5" y2="326.5"/><line style="stroke:#A80036;stroke-width:1.5;" x1="634.5" x2="681.5" y1="334.5" y2="334.5"/><!--MD5=[620d571e077dba97c0fce2ff5173b928]
link SystemAdministrator to Credit--><path codeLine="77" d="M114.3,134.13 C116.97,180.81 123.35,289.65 130,381 C136.4,468.84 145.01,570.37 150.54,633.76 " fill="none" id="SystemAdministrator-Credit" style="stroke:#A80036;stroke-width:1.0;"/><polygon fill="#000000" points="139.3617,424.5533,141.6386,415.3193,135.7761,415.7445,139.3617,424.5533" style="stroke:#000000;stroke-width:1.0;"/><text fill="#000000" font-family="sans-serif" font-size="13" lengthAdjust="spacing" textLength="60" x="148" y="424.0669">Approves</text><text fill="#000000" font-family="sans-serif" font-size="13" lengthAdjust="spacing" textLength="8" x="105.6419" y="153.9229">1</text><text fill="#000000" font-family="sans-serif" font-size="13" lengthAdjust="spacing" textLength="23" x="125.579" y="622.723">1..*</text><!--MD5=[47b08513909cecda75ebaf302d1d0f50]
link SystemAdministrator to CompanyAdministrator--><path codeLine="78" d="M193.88,110 C198.65,110 203.41,110 208.18,110 " fill="none" id="SystemAdministrator-to-CompanyAdministrator" style="stroke:#A80036;stroke-width:1.0;"/><polygon fill="none" points="208.42,103,228.42,110,208.42,117,208.42,103" style="stroke:#A80036;stroke-width:1.0;"/><!--MD5=[17e783bf0bdd3b7e9feb83bc141da981]
link CompanyAdministrator to Producer--><path codeLine="80" d="M401.84,110 C406.6,110 411.36,110 416.12,110 " fill="none" id="CompanyAdministrator-to-Producer" style="stroke:#A80036;stroke-width:1.0;"/><polygon fill="none" points="416.33,103,436.33,110,416.33,117,416.33,103" style="stroke:#A80036;stroke-width:1.0;"/><!--MD5=[fcb1d6488fe43466ecce6ea53daef192]
link CompanyAdministrator to Company--><path codeLine="81" d="M322.23,140.51 C328.49,164.15 338.51,197.9 351,226 C355.38,235.86 360.58,245.99 366,255.76 " fill="none" id="CompanyAdministrator-Company" style="stroke:#A80036;stroke-width:1.0;"/><polygon fill="#000000" points="357.7752,222.2407,357.3113,212.7414,351.8164,214.8283,357.7752,222.2407" style="stroke:#000000;stroke-width:1.0;"/><text fill="#000000" font-family="sans-serif" font-size="13" lengthAdjust="spacing" textLength="58" x="365" y="222.0669">Manages</text><!--MD5=[76bb363ccf2a88af566b84f1de6a4068]
link CompanyAdministrator to Channel--><path codeLine="82" d="M298.51,140.6 C288.06,159.83 274.59,185.58 264,209 C255.26,228.33 246.63,250.05 239.48,268.96 " fill="none" id="CompanyAdministrator-Channel" style="stroke:#A80036;stroke-width:1.0;"/><polygon fill="#000000" points="266.9109,222.1091,273.3602,215.1192,268.02,212.6634,266.9109,222.1091" style="stroke:#000000;stroke-width:1.0;"/><text fill="#000000" font-family="sans-serif" font-size="13" lengthAdjust="spacing" textLength="58" x="278" y="222.0669">Manages</text><!--MD5=[71a97a490704c070434937750bde4e67]
link Producer to Program--><path codeLine="84" d="M553.34,179.19 C553.42,239.17 543.95,325.37 496,381 C441.83,443.85 349.4,477.28 288.26,493.44 " fill="none" id="Producer-Program" style="stroke:#A80036;stroke-width:1.0;"/><polygon fill="#000000" points="548.7761,322.3883,556.8546,317.3694,552.3617,313.5795,548.7761,322.3883" style="stroke:#000000;stroke-width:1.0;"/><text fill="#000000" font-family="sans-serif" font-size="13" lengthAdjust="spacing" textLength="34" x="561" y="323.0669">Owns</text><text fill="#000000" font-family="sans-serif" font-size="13" lengthAdjust="spacing" textLength="8" x="545.3724" y="198.5902">1</text><text fill="#000000" font-family="sans-serif" font-size="13" lengthAdjust="spacing" textLength="23" x="296.2181" y="488.1441">1..*</text><!--MD5=[e3b4331ceeb2a83c060af12571a7e3ca]
link Producer to AuthController--><path codeLine="85" d="M661.68,110 C706.94,110 758.25,110 800.36,110 " fill="none" id="Producer-AuthController" style="stroke:#A80036;stroke-width:1.0;"/><polygon fill="#000000" points="679,98.5664,688.0451,101.5053,688.0451,95.6275,679,98.5664" style="stroke:#000000;stroke-width:1.0;"/><text fill="#000000" font-family="sans-serif" font-size="13" lengthAdjust="spacing" textLength="89" x="693" y="103.0669">Authenticates</text><!--MD5=[1fdb9fc6a8b82485479cb590cd830c3d]
link Producer to Company--><path codeLine="86" d="M501.45,179.19 C484.16,203.98 464.75,231.82 447.89,256 " fill="none" id="Producer-Company" style="stroke:#A80036;stroke-width:1.0;"/><polygon fill="#000000" points="479.1401,221.6678,486.7244,215.9293,481.903,212.5673,479.1401,221.6678" style="stroke:#000000;stroke-width:1.0;"/><text fill="#000000" font-family="sans-serif" font-size="13" lengthAdjust="spacing" textLength="42" x="491" y="222.0669">Part of</text><!--MD5=[00c8dc9f3cdfaa4cd82e30ac9f31d7a8]
link Producer to DB--><path codeLine="87" d="M584.99,179.19 C605.95,218.9 631.06,266.45 645.7,294.19 " fill="none" id="Producer-DB" style="stroke:#A80036;stroke-width:1.0;"/><polygon fill="#000000" points="608.6657,213.1447,610.2895,222.5157,615.4875,219.7716,608.6657,213.1447" style="stroke:#000000;stroke-width:1.0;"/><text fill="#000000" font-family="sans-serif" font-size="13" lengthAdjust="spacing" textLength="56" x="620" y="222.0669">Contains</text><text fill="#000000" font-family="sans-serif" font-size="13" lengthAdjust="spacing" textLength="23" x="564.3242" y="198.5902">1..*</text><text fill="#000000" font-family="sans-serif" font-size="13" lengthAdjust="spacing" textLength="8" x="633.7269" y="283.5194">1</text><!--MD5=[162bd9f14b116b1620a5e64ad84e0518]
link Channel to Program--><path codeLine="89" d="M223.3,368.14 C224.04,395.74 224.96,430.17 225.7,457.78 " fill="none" id="Channel-Program" style="stroke:#A80036;stroke-width:1.0;"/><polygon fill="#000000" points="230.1338,424.5646,232.8296,415.4441,226.9539,415.6014,230.1338,424.5646" style="stroke:#000000;stroke-width:1.0;"/><text fill="#000000" font-family="sans-serif" font-size="13" lengthAdjust="spacing" textLength="41" x="239" y="424.0669">Shows</text><text fill="#000000" font-family="sans-serif" font-size="13" lengthAdjust="spacing" textLength="8" x="214.9203" y="388.2362">1</text><text fill="#000000" font-family="sans-serif" font-size="13" lengthAdjust="spacing" textLength="23" x="200.9" y="446.7943">1..*</text><!--MD5=[286637dcaa03c9212d91116f113cc620]
link Credit to CreditRole--><path codeLine="91" d="M245.6,696.5 C271.14,696.5 297.98,696.5 320,696.5 " fill="none" id="Credit-CreditRole" style="stroke:#A80036;stroke-width:1.0;"/><polygon fill="#000000" points="272.75,685.0664,263.7049,682.1275,263.7049,688.0053,272.75,685.0664" style="stroke:#000000;stroke-width:1.0;"/><text fill="#000000" font-family="sans-serif" font-size="13" lengthAdjust="spacing" textLength="25" x="276.75" y="689.5669">Has</text><text fill="#000000" font-family="sans-serif" font-size="13" lengthAdjust="spacing" textLength="8" x="253.6437" y="692.9355">1</text><text fill="#000000" font-family="sans-serif" font-size="13" lengthAdjust="spacing" textLength="23" x="289.0047" y="709.5968">1..*</text><!--MD5=[2188ce9f683ca3d287b5c8641e215b9c]
link Program to Credit--><path codeLine="93" d="M208.53,557.14 C199.66,580.52 188.92,608.8 179.47,633.68 " fill="none" id="Program-Credit" style="stroke:#A80036;stroke-width:1.0;"/><polygon fill="#000000" points="199.2253,600.2408,205.1834,592.8279,199.6882,590.7415,199.2253,600.2408" style="stroke:#000000;stroke-width:1.0;"/><text fill="#000000" font-family="sans-serif" font-size="13" lengthAdjust="spacing" textLength="25" x="210" y="600.0669">Has</text><text fill="#000000" font-family="sans-serif" font-size="13" lengthAdjust="spacing" textLength="8" x="197.3702" y="577.2362">1</text><text fill="#000000" font-family="sans-serif" font-size="13" lengthAdjust="spacing" textLength="23" x="157.7792" y="623.0723">1..*</text><!--MD5=[01c21b8db1ce56ba2ee2acb485e7b2d2]
@startuml
'https://plantuml.com/class-diagram

package "Domænemodel" {
    'Personer her
    class Producer {
        - email : String
        - name : String
        - image : String
        - -
        + getName() : String
        + getEmail() : String
        + getImage(): String
        + validatePassword(String) : boolean
    }

    class CompanyAdministrator {
        - company: Company
    }

    class SystemAdministrator {
    }

    ' Naeste
    class Company {
        - regNo : int
        - name : String
        - manager : String
        - -
        + getRegNo() : int
        + getName() : String
        + getManager() : String
    }

    class Channel {
        - name: String
        - category: String
        - -
        + getName() : String
        + getCategory() : String
    }

    class Program {
        - title: String
        -startTime: long
        -endTime: long
        - -
        + getTitle() : String
    }

    class CreditRole {
        - title : String
    }


    class Credit {
        - name : String
        - role : CreditRole
        - date : OffsetDateTime
        - -
        + getName() : String
        + getRole() : CreditRole
        + getDate() : OffsetDateTime
    }

    'Controller
    class AuthController {
        - -
        + resetPassword() : String
        + validateLogin() : Producer
    }

    'Statics
    class DB {
    }
}

SystemAdministrator "1" - - "1..*" Credit : "Approves >"
SystemAdministrator -|> CompanyAdministrator

CompanyAdministrator -|> Producer
CompanyAdministrator - - Company : "Manages >"
CompanyAdministrator - - Channel : "Manages >"

Producer "1" - - "1..*" Program : "Owns >"
Producer - AuthController : "Authenticates <"
Producer - - Company : "Part of >"
Producer "1..*" - - "1" DB : "Contains <"

Channel "1" - - "1..*" Program : "Shows >"

Credit "1" - "1..*" CreditRole : "Has >"

Program "1" - - "1..*" Credit : "Has >"

@enduml

@startuml

package "Domænemodel" {
    class Producer {
        - email : String
        - name : String
        - image : String
        - -
        + getName() : String
        + getEmail() : String
        + getImage(): String
        + validatePassword(String) : boolean
    }

    class CompanyAdministrator {
        - company: Company
    }

    class SystemAdministrator {
    }

    class Company {
        - regNo : int
        - name : String
        - manager : String
        - -
        + getRegNo() : int
        + getName() : String
        + getManager() : String
    }

    class Channel {
        - name: String
        - category: String
        - -
        + getName() : String
        + getCategory() : String
    }

    class Program {
        - title: String
        -startTime: long
        -endTime: long
        - -
        + getTitle() : String
    }

    class CreditRole {
        - title : String
    }


    class Credit {
        - name : String
        - role : CreditRole
        - date : OffsetDateTime
        - -
        + getName() : String
        + getRole() : CreditRole
        + getDate() : OffsetDateTime
    }

    class AuthController {
        - -
        + resetPassword() : String
        + validateLogin() : Producer
    }

    class DB {
    }
}

SystemAdministrator "1" - - "1..*" Credit : "Approves >"
SystemAdministrator -|> CompanyAdministrator

CompanyAdministrator -|> Producer
CompanyAdministrator - - Company : "Manages >"
CompanyAdministrator - - Channel : "Manages >"

Producer "1" - - "1..*" Program : "Owns >"
Producer - AuthController : "Authenticates <"
Producer - - Company : "Part of >"
Producer "1..*" - - "1" DB : "Contains <"

Channel "1" - - "1..*" Program : "Shows >"

Credit "1" - "1..*" CreditRole : "Has >"

Program "1" - - "1..*" Credit : "Has >"

@enduml

PlantUML version 1.2021.4(Sun Apr 04 08:49:39 UTC 2021)
(GPL source distribution)
Java Runtime: OpenJDK Runtime Environment
JVM: OpenJDK 64-Bit Server VM
Default Encoding: UTF-8
Language: en
Country: null
--></g></svg>