<?xml version="1.0" encoding="UTF-8" standalone="no"?>
<svg xmlns="http://www.w3.org/2000/svg" contentScriptType="application/ecmascript" contentStyleType="text/css"
     height="1214px" preserveAspectRatio="none" style="width:851px;height:1214px;" version="1.1" viewBox="0 0 851 1214"
     width="851px" zoomAndPan="magnify"><defs><filter height="300%" id="fgktjziivvoy" width="300%" x="-1" y="-1"><feGaussianBlur result="blurOut" stdDeviation="2.0"/><feColorMatrix in="blurOut" result="blurOut2" type="matrix" values="0 0 0 0 0 0 0 0 0 0 0 0 0 0 0 0 0 0 .4 0"/><feOffset dx="4.0" dy="4.0" in="blurOut2" result="blurOut3"/><feBlend in="SourceGraphic" in2="blurOut3" mode="normal"/></filter></defs><g><!--MD5=[d99d4d7064094290eb42b28205824eec]
cluster Consumer System--><rect fill="#FFFFFF" filter="url(#fgktjziivvoy)" height="178" style="stroke:#000000;stroke-width:1.5;" width="210" x="449.5" y="7"/><text fill="#000000" font-family="sans-serif" font-size="14" font-weight="bold" lengthAdjust="spacing" textLength="144" x="482.5" y="21.9951">Consumer System</text><!--MD5=[03575d27d1848e7b7cc95049bc3cf4b6]
cluster Credit Management System--><rect fill="#FFFFFF" filter="url(#fgktjziivvoy)" height="993" style="stroke:#000000;stroke-width:1.5;" width="233" x="438" y="209"/><text fill="#000000" font-family="sans-serif" font-size="14" font-weight="bold" lengthAdjust="spacing" textLength="217" x="446" y="223.9951">Credit Management System</text><ellipse cx="554.5612" cy="151.2122" fill="#FEFECE" filter="url(#fgktjziivvoy)" rx="76.5612" ry="17.7122" style="stroke:#A80036;stroke-width:1.5;"/><text fill="#000000" font-family="sans-serif" font-size="14" lengthAdjust="spacing" textLength="110" x="496.5612" y="154.9598">Se krediteringer</text><ellipse cx="554.2915" cy="62.1583" fill="#FEFECE" filter="url(#fgktjziivvoy)" rx="88.7915" ry="20.1583" style="stroke:#A80036;stroke-width:1.5;"/><text fill="#000000" font-family="sans-serif" font-size="14" lengthAdjust="spacing" textLength="139" x="484.7915" y="65.005">Filtrere krediteringer</text><ellipse cx="554.5612" cy="637.2122" fill="#FEFECE" filter="url(#fgktjziivvoy)" rx="76.5612" ry="17.7122" style="stroke:#A80036;stroke-width:1.5;"/><text fill="#000000" font-family="sans-serif" font-size="14" lengthAdjust="spacing" textLength="110" x="496.5612" y="640.9598">Se krediteringer</text><ellipse cx="554.2915" cy="726.1583" fill="#FEFECE" filter="url(#fgktjziivvoy)" rx="88.7915" ry="20.1583" style="stroke:#A80036;stroke-width:1.5;"/><text fill="#000000" font-family="sans-serif" font-size="14" lengthAdjust="spacing" textLength="139" x="484.7915" y="729.005">Filtrere krediteringer</text><ellipse cx="554.4278" cy="1087.9856" fill="#FEFECE" filter="url(#fgktjziivvoy)" rx="100.4278" ry="22.4856" style="stroke:#A80036;stroke-width:1.5;"/><text fill="#000000" font-family="sans-serif" font-size="14" lengthAdjust="spacing" textLength="165" x="471.9278" y="1090.8322">Godkende krediteringer</text><ellipse cx="554.6635" cy="548.1327" fill="#FEFECE" filter="url(#fgktjziivvoy)" rx="86.1635" ry="19.6327" style="stroke:#A80036;stroke-width:1.5;"/><text fill="#000000" font-family="sans-serif" font-size="14" lengthAdjust="spacing" textLength="133" x="488.1635" y="550.9794">Håndtér kreditering</text><ellipse cx="554.3343" cy="261.1669" fill="#FEFECE" filter="url(#fgktjziivvoy)" rx="73.8343" ry="17.1669" style="stroke:#A80036;stroke-width:1.5;"/><text fill="#000000" font-family="sans-serif" font-size="14" lengthAdjust="spacing" textLength="103" x="499.8343" y="264.9144">Linke personer</text><ellipse cx="554.5678" cy="330.0136" fill="#FEFECE" filter="url(#fgktjziivvoy)" rx="73.0678" ry="17.0136" style="stroke:#A80036;stroke-width:1.5;"/><text fill="#000000" font-family="sans-serif" font-size="14" lengthAdjust="spacing" textLength="101" x="501.0678" y="333.7611">Opret program</text><ellipse cx="554.4652" cy="400.193" fill="#FEFECE" filter="url(#fgktjziivvoy)" rx="78.9652" ry="18.193" style="stroke:#A80036;stroke-width:1.5;"/><text fill="#000000" font-family="sans-serif" font-size="14" lengthAdjust="spacing" textLength="116" x="494.4" y="403.6886">Redigér program</text><ellipse cx="554.74" cy="872.048" fill="#FEFECE" filter="url(#fgktjziivvoy)" rx="68.24" ry="16.048" style="stroke:#A80036;stroke-width:1.5;"/><text fill="#000000" font-family="sans-serif" font-size="14" lengthAdjust="spacing" textLength="88" x="507.74" y="875.7956">Slet program</text><ellipse cx="554.4128" cy="1165.9826" fill="#FEFECE" filter="url(#fgktjziivvoy)" rx="87.9128" ry="19.9826" style="stroke:#A80036;stroke-width:1.5;"/><text fill="#000000" font-family="sans-serif" font-size="14" lengthAdjust="spacing" textLength="137" x="485.9128" y="1168.8292">Administrér brugere</text><ellipse cx="554.4455" cy="942.1891" fill="#FEFECE" filter="url(#fgktjziivvoy)" rx="81.4455" ry="18.6891" style="stroke:#A80036;stroke-width:1.5;"/><text fill="#000000" font-family="sans-serif" font-size="14" lengthAdjust="spacing" textLength="122" x="492.3109" y="945.409">Håndtér producer</text><ellipse cx="554.2915" cy="801.1583" fill="#FEFECE" filter="url(#fgktjziivvoy)" rx="88.7915" ry="20.1583" style="stroke:#A80036;stroke-width:1.5;"/><text fill="#000000" font-family="sans-serif" font-size="14" lengthAdjust="spacing" textLength="139" x="484.7915" y="804.005">Håndter virksomhed</text><ellipse cx="554.5612" cy="1013.2122" fill="#FEFECE" filter="url(#fgktjziivvoy)" rx="76.5612" ry="17.7122" style="stroke:#A80036;stroke-width:1.5;"/><text fill="#000000" font-family="sans-serif" font-size="14" lengthAdjust="spacing" textLength="110" x="496.5612" y="1016.9598">Eksportere data</text><ellipse cx="554.7318" cy="473.2464" fill="#FEFECE" filter="url(#fgktjziivvoy)" rx="89.2318" ry="20.2464" style="stroke:#A80036;stroke-width:1.5;"/><text fill="#000000" font-family="sans-serif" font-size="14" lengthAdjust="spacing" textLength="140" x="484.7318" y="476.093">Nulstil adgangskode</text><!--MD5=[165794d66c29ca850eb712b279abb0ce]
entity producer--><ellipse cx="301" cy="442" fill="#FEFECE" filter="url(#fgktjziivvoy)" rx="8" ry="8" style="stroke:#A80036;stroke-width:1.5;"/><path d="M301,450 L301,477 M288,458 L314,458 M301,477 L288,492 M301,477 L314,492 " fill="none" filter="url(#fgktjziivvoy)" style="stroke:#A80036;stroke-width:1.5;"/><text fill="#000000" font-family="sans-serif" font-size="14" lengthAdjust="spacing" textLength="124" x="239" y="510.4951">Producer (Bruger)</text><!--MD5=[65a041cd1922b3dee6e64063a2213939]
entity administrator--><ellipse cx="301" cy="1028" fill="#FEFECE" filter="url(#fgktjziivvoy)" rx="8" ry="8" style="stroke:#A80036;stroke-width:1.5;"/><path d="M301,1036 L301,1063 M288,1044 L314,1044 M301,1063 L288,1078 M301,1063 L314,1078 " fill="none" filter="url(#fgktjziivvoy)" style="stroke:#A80036;stroke-width:1.5;"/><text fill="#000000" font-family="sans-serif" font-size="14" lengthAdjust="spacing" textLength="141" x="230.5" y="1096.4951">Systemadministrator</text><!--MD5=[0a3d477460fe7be82a5a28ff9aee024a]
entity seer--><ellipse cx="301" cy="76" fill="#FEFECE" filter="url(#fgktjziivvoy)" rx="8" ry="8" style="stroke:#A80036;stroke-width:1.5;"/><path d="M301,84 L301,111 M288,92 L314,92 M301,111 L288,126 M301,111 L314,126 " fill="none" filter="url(#fgktjziivvoy)" style="stroke:#A80036;stroke-width:1.5;"/><text fill="#000000" font-family="sans-serif" font-size="14" lengthAdjust="spacing" textLength="32" x="285" y="144.4951">Seer</text><!--MD5=[635f57c6a5ffb3fed09f11a5a6885b6a]
entity virksomhedsadministrator--><ellipse cx="301" cy="841" fill="#FEFECE" filter="url(#fgktjziivvoy)" rx="8" ry="8" style="stroke:#A80036;stroke-width:1.5;"/><path d="M301,849 L301,876 M288,857 L314,857 M301,876 L288,891 M301,876 L314,891 " fill="none" filter="url(#fgktjziivvoy)" style="stroke:#A80036;stroke-width:1.5;"/><text fill="#000000" font-family="sans-serif" font-size="14" lengthAdjust="spacing" textLength="180" x="211" y="909.4951">Virksomhedsadministrator</text><path d="M6,829 L6,914.6641 A0,0 0 0 0 6,914.6641 L150,914.6641 A0,0 0 0 0 150,914.6641 L150,876 L210.77,872 L150,868 L150,839 L140,829 L6,829 A0,0 0 0 0 6,829 " fill="#FBFB77" filter="url(#fgktjziivvoy)" style="stroke:#A80036;stroke-width:1.0;"/><path d="M140,829 L140,839 L150,839 L140,829 " fill="#FBFB77" style="stroke:#A80036;stroke-width:1.0;"/><text fill="#000000" font-family="sans-serif" font-size="13" lengthAdjust="spacing" textLength="88" x="12" y="846.0669">Denne bruger</text><text fill="#000000" font-family="sans-serif" font-size="13" lengthAdjust="spacing" textLength="86" x="12" y="861.1997">er ansat af et</text><text fill="#000000" font-family="sans-serif" font-size="13" lengthAdjust="spacing" textLength="123" x="12" y="876.3325">produktionsselskab</text><text fill="#000000" font-family="sans-serif" font-size="13" lengthAdjust="spacing" textLength="0" x="16" y="891.4653"/><text fill="#000000" font-family="sans-serif" font-size="13" lengthAdjust="spacing" textLength="37" x="12" y="906.5981">F.eks.</text><text fill="#000000" font-family="sans-serif" font-size="13" font-style="italic" lengthAdjust="spacing" textLength="47" x="53" y="906.5981">Banijay</text><!--MD5=[d458c878d9747c7d2f74776a9dd85d19]
entity epg--><rect fill="#FEFECE" filter="url(#fgktjziivvoy)" height="52.5938" style="stroke:#000000;stroke-width:1.5;" width="104" x="726.5" y="367.5"/><text fill="#000000" font-family="sans-serif" font-size="14" lengthAdjust="spacing" textLength="53" x="736.5" y="390.4951">«aktør»</text><text fill="#000000" font-family="sans-serif" font-size="14" lengthAdjust="spacing" textLength="84" x="736.5" y="406.792">EPG-system</text><!--MD5=[403d1ff1c9e938ad5cdec8e600e73f84]
entity cvr--><rect fill="#FEFECE" filter="url(#fgktjziivvoy)" height="52.5938" style="stroke:#000000;stroke-width:1.5;" width="121" x="718" y="774.5"/><text fill="#000000" font-family="sans-serif" font-size="14" lengthAdjust="spacing" textLength="53" x="728" y="797.4951">«aktør»</text><text fill="#000000" font-family="sans-serif" font-size="14" lengthAdjust="spacing" textLength="101" x="728" y="813.792">CVR-registeret</text><!--MD5=[00fd8e341ef535cf567c17c8c3cebe01]
link CS:Filtrere krediteringer to CS:Se krediteringer--><path d="M554.5,82.03 C554.5,95.79 554.5,114.07 554.5,128.35 " fill="none" id="CS:Filtrere krediteringer-to-CS:Se krediteringer" style="stroke:#A80036;stroke-width:1.0;stroke-dasharray:7.0,7.0;"/><polygon fill="#A80036" points="554.5,133.42,558.5,124.42,554.5,128.42,550.5,124.42,554.5,133.42" style="stroke:#A80036;stroke-width:1.0;"/><text fill="#000000" font-family="sans-serif" font-size="13" lengthAdjust="spacing" textLength="60" x="513" y="112.3169">«extend»</text><!--MD5=[37c260d2b3c0f485133ce34e1ebc2b85]
link Håndter kreditering to Se krediteringer--><path d="M554.5,567.72 C554.5,581.49 554.5,599.93 554.5,614.31 " fill="none" id="Håndter kreditering-to-Se krediteringer" style="stroke:#A80036;stroke-width:1.0;stroke-dasharray:7.0,7.0;"/><polygon fill="#A80036" points="554.5,619.42,558.5,610.42,554.5,614.42,550.5,610.42,554.5,619.42" style="stroke:#A80036;stroke-width:1.0;"/><text fill="#000000" font-family="sans-serif" font-size="13" lengthAdjust="spacing" textLength="61" x="512.5" y="598.0669">«include»</text><!--MD5=[4514b21014b49716983822ce1e3fa700]
link Filtrere krediteringer to Se krediteringer--><path d="M554.5,705.8 C554.5,692.1 554.5,673.96 554.5,659.75 " fill="none" id="Filtrere krediteringer-to-Se krediteringer" style="stroke:#A80036;stroke-width:1.0;stroke-dasharray:7.0,7.0;"/><polygon fill="#A80036" points="554.5,654.71,550.5,663.71,554.5,659.71,558.5,663.71,554.5,654.71" style="stroke:#A80036;stroke-width:1.0;"/><text fill="#000000" font-family="sans-serif" font-size="13" lengthAdjust="spacing" textLength="60" x="513" y="684.8169">«extend»</text><!--MD5=[2a04366f29b8b72cc81801e69f819183]
link seer to CS:Se krediteringer--><path d="M317.35,109.69 C350.48,115.48 430.33,129.45 488.02,139.54 " fill="none" id="seer-to-CS:Se krediteringer" style="stroke:#A80036;stroke-width:1.0;"/><polygon fill="#A80036" points="493.18,140.45,485.0139,134.9441,488.2564,139.5794,483.621,142.8219,493.18,140.45" style="stroke:#A80036;stroke-width:1.0;"/><!--MD5=[074225abf5411be42f6e9e764992f74f]
link seer to CS:Filtrere krediteringer--><path d="M317.35,104.25 C348.83,98.62 422.46,85.45 479.21,75.29 " fill="none" id="seer-to-CS:Filtrere krediteringer" style="stroke:#A80036;stroke-width:1.0;"/><polygon fill="#A80036" points="484.3,74.38,474.741,72.0081,479.3764,75.2506,476.1339,79.8859,484.3,74.38" style="stroke:#A80036;stroke-width:1.0;"/><!--MD5=[c48babd73950e1dcfd5926ee0b1c6f87]
link producer to Se krediteringer--><path d="M341.68,513.71 C365.7,536.75 397.83,564.89 430,585 C453.39,599.62 481.61,611.85 505.16,620.77 " fill="none" id="producer-to-Se krediteringer" style="stroke:#A80036;stroke-width:1.0;"/><polygon fill="#A80036" points="510.11,622.63,503.0875,615.7246,505.4284,620.8744,500.2785,623.2152,510.11,622.63" style="stroke:#A80036;stroke-width:1.0;"/><!--MD5=[7d7347e9e98b461df00e2d2708387b2f]
link producer to Håndter kreditering--><path d="M363.2,491.25 C403.83,503.37 456.8,519.16 496.54,531.01 " fill="none" id="producer-to-Håndter kreditering" style="stroke:#A80036;stroke-width:1.0;"/><polygon fill="#A80036" points="501.81,532.58,494.3302,526.1728,497.0189,531.1498,492.0419,533.8386,501.81,532.58" style="stroke:#A80036;stroke-width:1.0;"/><!--MD5=[ac2e9b4ebb0514c73df7798a420e6b95]
link producer to Nulstil adgangskode--><path d="M363.2,473 C392.32,473 427.78,473 460.16,473 " fill="none" id="producer-to-Nulstil adgangskode" style="stroke:#A80036;stroke-width:1.0;"/><polygon fill="#A80036" points="465.33,473,456.33,469,460.33,473,456.33,477,465.33,473" style="stroke:#A80036;stroke-width:1.0;"/><!--MD5=[21fccaab653ed15d4a18a09941cb4179]
link producer to Opret program--><path d="M340.41,432.42 C364.23,409.37 396.6,381.69 430,364 C448.84,354.02 470.89,346.75 491.11,341.55 " fill="none" id="producer-to-Opret program" style="stroke:#A80036;stroke-width:1.0;"/><polygon fill="#A80036" points="496.2,340.28,486.4986,338.5823,491.3493,341.4927,488.4389,346.3434,496.2,340.28" style="stroke:#A80036;stroke-width:1.0;"/><!--MD5=[1c9eb7bcc37d1c7b5245e980bbc336ef]
link producer to Rediger program--><path d="M363.16,454.68 C384.31,448.38 408.18,441.33 430,435 C452.58,428.45 477.53,421.35 499.06,415.27 " fill="none" id="producer-to-Rediger program" style="stroke:#A80036;stroke-width:1.0;"/><polygon fill="#A80036" points="503.88,413.91,494.1323,412.502,499.0676,415.2666,496.3029,420.2019,503.88,413.91" style="stroke:#A80036;stroke-width:1.0;"/><!--MD5=[17347418d2b6b4365dadbd58120cb5cd]
link producer to Linke personer--><path d="M320.82,432.5 C341.81,391.77 379.54,330.11 430,295 C446.41,283.58 466.52,275.99 485.71,270.95 " fill="none" id="producer-to-Linke personer" style="stroke:#A80036;stroke-width:1.0;"/><polygon fill="#A80036" points="490.56,269.72,480.8527,268.0559,485.7135,270.9495,482.8199,275.8103,490.56,269.72" style="stroke:#A80036;stroke-width:1.0;"/><!--MD5=[f708e6cde0c71938fe4aa2b1bcff5d32]
link virksomhedsadministrator to Håndter producer--><path d="M391.02,896.78 C426.43,906.63 466.1,917.67 497.38,926.38 " fill="none" id="virksomhedsadministrator-to-Håndter producer" style="stroke:#A80036;stroke-width:1.0;"/><polygon fill="#A80036" points="502.33,927.76,494.7356,921.489,497.5138,926.4166,492.5862,929.1948,502.33,927.76" style="stroke:#A80036;stroke-width:1.0;"/><!--MD5=[362c56ee8f342c1e985a4d480558f58f]
link virksomhedsadministrator to Håndter virksomhed--><path d="M391.02,846.87 C424.96,837.29 462.8,826.6 493.43,817.96 " fill="none" id="virksomhedsadministrator-to-Håndter virksomhed" style="stroke:#A80036;stroke-width:1.0;"/><polygon fill="#A80036" points="498.28,816.59,488.5323,815.182,493.4676,817.9466,490.7029,822.8819,498.28,816.59" style="stroke:#A80036;stroke-width:1.0;"/><!--MD5=[68f7e63ebc66e9ae4704f66e98bb9084]
link virksomhedsadministrator to Slet program--><path d="M391.02,872 C420.56,872 453.05,872 481.17,872 " fill="none" id="virksomhedsadministrator-to-Slet program" style="stroke:#A80036;stroke-width:1.0;"/><polygon fill="#A80036" points="486.36,872,477.36,868,481.36,872,477.36,876,486.36,872" style="stroke:#A80036;stroke-width:1.0;"/><!--MD5=[cec2885d55d7f3c98ccbc5093d4e9a14]
reverse link CS:Se krediteringer to epg--><path d="M594.21,168.97 C620.39,182.5 654.53,202.99 679,228 C720.01,269.92 750.98,332.1 766.47,367.25 " fill="none" id="CS:Se krediteringer-backto-epg" style="stroke:#A80036;stroke-width:1.0;"/><polygon fill="#A80036" points="589.75,166.69,595.9331,174.3561,594.1991,168.9716,599.5836,167.2376,589.75,166.69" style="stroke:#A80036;stroke-width:1.0;"/><!--MD5=[261c2d7a05de874bec7821f660a2aad4]
reverse link Se krediteringer to epg--><path d="M611.76,622.55 C634.7,614.46 660.19,602.41 679,585 C728.98,538.76 757.76,461.38 770.16,420.76 " fill="none" id="Se krediteringer-backto-epg" style="stroke:#A80036;stroke-width:1.0;"/><polygon fill="#A80036" points="606.91,624.21,616.7197,625.0878,611.6419,622.5946,614.135,617.5168,606.91,624.21" style="stroke:#A80036;stroke-width:1.0;"/><!--MD5=[9e506eaf6f73293632498d4a43ca454f]
link Håndter virksomhed to cvr--><path d="M643.56,801 C668.5,801 695.05,801 717.88,801 " fill="none" id="Håndter virksomhed-cvr" style="stroke:#A80036;stroke-width:1.0;"/><!--MD5=[eabdebbce3f3db060177946f8baabff6]
link administrator to Eksportere data--><path d="M371.72,1046.25 C408.44,1039.53 453.17,1031.35 489.07,1024.78 " fill="none" id="administrator-to-Eksportere data" style="stroke:#A80036;stroke-width:1.0;"/><polygon fill="#A80036" points="494.3,1023.83,484.7267,1021.5167,489.3818,1024.7307,486.1678,1029.3859,494.3,1023.83" style="stroke:#A80036;stroke-width:1.0;"/><!--MD5=[8e6bb1a3eda562df47d51da6b5c607b1]
link administrator to Godkende krediteringer--><path d="M371.72,1067.04 C398.93,1070.18 430.54,1073.82 459.7,1077.18 " fill="none" id="administrator-to-Godkende krediteringer" style="stroke:#A80036;stroke-width:1.0;"/><polygon fill="#A80036" points="464.73,1077.76,456.2456,1072.7584,459.7627,1077.189,455.3321,1080.7061,464.73,1077.76" style="stroke:#A80036;stroke-width:1.0;"/><!--MD5=[e63d8264cee9a827837bc15b8843e013]
link administrator to Administrer brugere--><path d="M371.54,1099.68 C390.18,1109.69 410.56,1119.86 430,1128 C449.55,1136.19 471.5,1143.51 491.4,1149.48 " fill="none" id="administrator-to-Administrer brugere" style="stroke:#A80036;stroke-width:1.0;"/><polygon fill="#A80036" points="496.42,1150.97,488.9175,1144.5894,491.6239,1149.5569,486.6564,1152.2632,496.42,1150.97" style="stroke:#A80036;stroke-width:1.0;"/><!--MD5=[72d18b765201b6f98c771a816e7b2f8d]
reverse link producer to virksomhedsadministrator--><path d="M301,533.79 C301,633.02 301,732.25 301,831.48 " fill="none" id="producer-backto-virksomhedsadministrator" style="stroke:#A80036;stroke-width:1.0;"/><polygon fill="none" points="294,533.61,301,513.61,308,533.61,294,533.61" style="stroke:#A80036;stroke-width:1.0;"/><!--MD5=[3ccf4a485e5eb4c56c761cd8280bdfc3]
reverse link virksomhedsadministrator to administrator--><path d="M301,932.88 C301,961.4 301,989.93 301,1018.46 " fill="none" id="virksomhedsadministrator-backto-administrator" style="stroke:#A80036;stroke-width:1.0;"/><polygon fill="none" points="294,932.62,301,912.62,308,932.62,294,932.62" style="stroke:#A80036;stroke-width:1.0;"/><!--MD5=[770a94c79401ec247557b945f54f1b32]
@startuml
'https://plantuml.com/use-case-diagram
left to right direction

actor "Producer (Bruger)" as producer
actor Systemadministrator as administrator
actor Seer as seer

actor Virksomhedsadministrator as virksomhedsadministrator
note left of virksomhedsadministrator
    Denne bruger
    er ansat af et
    produktionsselskab

    F.eks. //Banijay//
end note

rectangle "<<aktør>>\nEPG-system" as epg
rectangle "<<aktør>>\nCVR-registeret" as cvr

rectangle "Consumer System" {
    usecase "Se krediteringer" as (CS:Se krediteringer)
    usecase "Filtrere krediteringer" as (CS:Filtrere krediteringer)
}

rectangle "Credit Management System" {
    'Krediteringer
    usecase "Se krediteringer" as (Se krediteringer)
    usecase "Filtrere krediteringer" as (Filtrere krediteringer)
    usecase "Godkende krediteringer" as (Godkende krediteringer)
    usecase "Håndtér kreditering" as (Håndter kreditering)
    usecase "Linke personer" as (Linke personer)

    'Programmer
    usecase "Opret program" as (Opret program)
    usecase "Redigér program" as (Rediger program)
    usecase "Slet program" as (Slet program)

    usecase "Administrér brugere" as (Administrer brugere)

    usecase "Håndtér producer" as (Håndter producer)

    usecase "Håndter virksomhed" as (Håndter virksomhed)

    usecase "Eksportere data" as (Eksportere data)

    usecase "Nulstil adgangskode" as (Nulstil adgangskode)
}

(CS:Filtrere krediteringer) .> (CS:Se krediteringer) : <<extend>>
(Håndter kreditering) .> (Se krediteringer) : <<include>>
(Filtrere krediteringer) .> (Se krediteringer) : <<extend>>

'Seer
seer - -> (CS:Se krediteringer)
seer - -> (CS:Filtrere krediteringer)

'Producer
producer - -> (Se krediteringer)
producer - -> (Håndter kreditering)
producer - -> (Nulstil adgangskode)

producer - -> (Opret program)
producer - -> (Rediger program)
producer - -> (Linke personer)

'Virksomhedsadministrator
virksomhedsadministrator - -> (Håndter producer)
virksomhedsadministrator - -> (Håndter virksomhed)
virksomhedsadministrator - -> (Slet program)

'EPG
(CS:Se krediteringer) <- - epg
(Se krediteringer) <- - epg

'CVR
(Håndter virksomhed) - - cvr

'Systemadministrator
administrator - -> (Eksportere data)
administrator - -> (Godkende krediteringer)
administrator - -> (Administrer brugere)

'Generalisering
virksomhedsadministrator -l-|> producer
administrator -l-|> virksomhedsadministrator

@enduml

@startuml
left to right direction

actor "Producer (Bruger)" as producer
actor Systemadministrator as administrator
actor Seer as seer

actor Virksomhedsadministrator as virksomhedsadministrator
note left of virksomhedsadministrator
    Denne bruger
    er ansat af et
    produktionsselskab

    F.eks. //Banijay//
end note

rectangle "<<aktør>>\nEPG-system" as epg
rectangle "<<aktør>>\nCVR-registeret" as cvr

rectangle "Consumer System" {
    usecase "Se krediteringer" as (CS:Se krediteringer)
    usecase "Filtrere krediteringer" as (CS:Filtrere krediteringer)
}

rectangle "Credit Management System" {
    usecase "Se krediteringer" as (Se krediteringer)
    usecase "Filtrere krediteringer" as (Filtrere krediteringer)
    usecase "Godkende krediteringer" as (Godkende krediteringer)
    usecase "Håndtér kreditering" as (Håndter kreditering)
    usecase "Linke personer" as (Linke personer)

    usecase "Opret program" as (Opret program)
    usecase "Redigér program" as (Rediger program)
    usecase "Slet program" as (Slet program)

    usecase "Administrér brugere" as (Administrer brugere)

    usecase "Håndtér producer" as (Håndter producer)

    usecase "Håndter virksomhed" as (Håndter virksomhed)

    usecase "Eksportere data" as (Eksportere data)

    usecase "Nulstil adgangskode" as (Nulstil adgangskode)
}

(CS:Filtrere krediteringer) .> (CS:Se krediteringer) : <<extend>>
(Håndter kreditering) .> (Se krediteringer) : <<include>>
(Filtrere krediteringer) .> (Se krediteringer) : <<extend>>

seer - -> (CS:Se krediteringer)
seer - -> (CS:Filtrere krediteringer)

producer - -> (Se krediteringer)
producer - -> (Håndter kreditering)
producer - -> (Nulstil adgangskode)

producer - -> (Opret program)
producer - -> (Rediger program)
producer - -> (Linke personer)

virksomhedsadministrator - -> (Håndter producer)
virksomhedsadministrator - -> (Håndter virksomhed)
virksomhedsadministrator - -> (Slet program)

(CS:Se krediteringer) <- - epg
(Se krediteringer) <- - epg

(Håndter virksomhed) - - cvr

administrator - -> (Eksportere data)
administrator - -> (Godkende krediteringer)
administrator - -> (Administrer brugere)

virksomhedsadministrator -l-|> producer
administrator -l-|> virksomhedsadministrator

@enduml

PlantUML version 1.2021.4(Sun Apr 04 08:49:39 UTC 2021)
(GPL source distribution)
Java Runtime: OpenJDK Runtime Environment
JVM: OpenJDK 64-Bit Server VM
Default Encoding: UTF-8
Language: en
Country: null
--></g></svg>