<?xml version="1.0" encoding="UTF-8" standalone="no"?><svg xmlns="http://www.w3.org/2000/svg" xmlns:xlink="http://www.w3.org/1999/xlink" contentScriptType="application/ecmascript" contentStyleType="text/css" height="560px" preserveAspectRatio="none" style="width:513px;height:560px;" version="1.1" viewBox="0 0 513 560" width="513px" zoomAndPan="magnify"><defs><filter height="300%" id="f1p13gs7k4wi00" width="300%" x="-1" y="-1"><feGaussianBlur result="blurOut" stdDeviation="2.0"/><feColorMatrix in="blurOut" result="blurOut2" type="matrix" values="0 0 0 0 0 0 0 0 0 0 0 0 0 0 0 0 0 0 .4 0"/><feOffset dx="4.0" dy="4.0" in="blurOut2" result="blurOut3"/><feBlend in="SourceGraphic" in2="blurOut3" mode="normal"/></filter></defs><g><!--MD5=[262aabfe314dcb38308ea550cce12173]
cluster Some Group--><polygon fill="#FFFFFF" filter="url(#f1p13gs7k4wi00)" points="16,6,120,6,127,28.2969,474,28.2969,474,103,16,103,16,6" style="stroke:#000000;stroke-width:1.5;"/><line style="stroke:#000000;stroke-width:1.5;" x1="16" x2="127" y1="28.2969" y2="28.2969"/><text fill="#000000" font-family="sans-serif" font-size="14" font-weight="bold" lengthAdjust="spacing" textLength="98" x="20" y="20.9951">Some Group</text><!--MD5=[a809f7b457cbc4d947186a4bb863b06b]
cluster Other Groups--><polygon fill="#FFFFFF" filter="url(#f1p13gs7k4wi00)" points="48,137,58,127,313,127,313,219,303,229,48,229,48,137" style="stroke:#000000;stroke-width:1.5;"/><line style="stroke:#000000;stroke-width:1.5;" x1="303" x2="313" y1="137" y2="127"/><line style="stroke:#000000;stroke-width:1.5;" x1="48" x2="303" y1="137" y2="137"/><line style="stroke:#000000;stroke-width:1.5;" x1="303" x2="303" y1="137" y2="229"/><text fill="#000000" font-family="sans-serif" font-size="14" font-weight="bold" lengthAdjust="spacing" textLength="108" x="122.5" y="152.9951">Other Groups</text><path d="M345.1187,159.2583 C349.3128,153.2342 353.3886,153.5677 357.9901,158.7921 C361.5154,151.3317 366.1475,152.2471 371.1801,157.189 C374.4102,151.4402 379.3784,151.4954 382.8153,156.9748 C386.5845,149.9288 391.1513,147.6807 397.2242,154.5975 C400.9822,148.2902 406.7848,148.0373 409.9345,155.1728 C413.2507,148.0478 418.7701,148.8987 422.6642,154.5992 C427.3439,149.0802 432.7441,151.2942 434.6675,157.4363 C438.926,152.1899 442.9017,150.6274 447.1708,157.4253 C451.6545,153.0343 456.5476,154.1559 458.8505,159.9308 C463.0612,153.8744 468.3884,154.2314 472.7407,159.7611 C481.1274,162.7619 481.4761,168.8768 476.4732,175.1295 C487.2041,178.076 487.2435,183.7065 481.5036,191.664 C486.8577,199.2584 484.9254,205.1159 475.777,207.4489 C481.7546,212.6077 481.2162,218.9256 473.1842,221.4991 C470.0448,229.3507 463.1223,228.6637 459.1992,222.2683 C457.0784,228.5285 451.1729,230.2596 446.9108,224.4482 C443.2341,230.7097 438.2019,230.5555 434.4595,224.5147 C431.1128,230.6182 427.5614,232.067 422.3908,226.382 C418.1278,233.6872 412.8178,233.087 408.768,226.1776 C404.6638,232.2652 398.3318,231.2655 396.0031,224.4245 C392.5044,230.5012 386.8566,231.8375 382.841,224.9492 C378.5442,230.3473 373.6405,229.6562 371.2997,223.0662 C367.7827,228.4342 362.8697,227.8291 359.7929,222.5885 C355.6901,228.231 349.0271,228.3002 345.8,221.596 C338.4051,218.3766 336.1416,212.6936 342.1747,206.2931 C333.2378,204.1037 332.4509,198.8578 337.4729,192.058 C330.6136,184.451 331.752,177.7502 342.4287,175.3423 C336.5202,169.6694 336.2261,162.4557 345.1187,159.2583 " fill="#FFFFFF" filter="url(#f1p13gs7k4wi00)" style="stroke:#000000;stroke-width:1.5;"/><!--MD5=[a8e31809c94bd3920922c17a126bb0b3]
cluster MySql--><path d="M311,263 C311,253 408.5,253 408.5,253 C408.5,253 506,253 506,263 L506,543 C506,553 408.5,553 408.5,553 C408.5,553 311,553 311,543 L311,263 " fill="#FFFFFF" filter="url(#f1p13gs7k4wi00)" style="stroke:#000000;stroke-width:1.5;"/><path d="M311,263 C311,273 408.5,273 408.5,273 C408.5,273 506,273 506,263 " fill="none" style="stroke:#000000;stroke-width:1.5;"/><text fill="#000000" font-family="sans-serif" font-size="14" font-weight="bold" lengthAdjust="spacing" textLength="46" x="385.5" y="287.9951">MySql</text><!--MD5=[57a7dd60b0970f41fd8892a58576fbc8]
cluster This is my folder--><polygon fill="#FFFFFF" filter="url(#f1p13gs7k4wi00)" points="335,311,472,311,479,333.2969,482,333.2969,482,408,335,408,335,311" style="stroke:#000000;stroke-width:1.5;"/><line style="stroke:#000000;stroke-width:1.5;" x1="335" x2="479" y1="333.2969" y2="333.2969"/><text fill="#000000" font-family="sans-serif" font-size="14" font-weight="bold" lengthAdjust="spacing" textLength="131" x="339" y="325.9951">This is my folder</text><!--MD5=[b098bf3b49ab5940c6091a421f0675e2]
cluster Foo--><rect fill="#FFFFFF" filter="url(#f1p13gs7k4wi00)" height="97" style="stroke:#000000;stroke-width:1.5;" width="128" x="344" y="432"/><path d="M383,432 L383,441.2969 L373,451.2969 L344,451.2969 " fill="none" style="stroke:#000000;stroke-width:1.5;"/><text fill="#000000" font-family="sans-serif" font-size="14" font-weight="bold" lengthAdjust="spacing" textLength="29" x="347" y="445.9951">Foo</text><!--MD5=[96f7e1299d4a43069e6ed32352fcac20]
entity HTTP--><ellipse cx="232" cy="64" fill="#FEFECE" filter="url(#f1p13gs7k4wi00)" rx="8" ry="8" style="stroke:#A80036;stroke-width:1.5;"/><text fill="#000000" font-family="sans-serif" font-size="14" lengthAdjust="spacing" textLength="37" x="213.5" y="93.9951">HTTP</text><!--MD5=[cbd7cda55f2530e2efe43ec72c097853]
entity First Component--><rect fill="#FEFECE" filter="url(#f1p13gs7k4wi00)" height="46.2969" style="stroke:#A80036;stroke-width:1.5;" width="155" x="32.5" y="41"/><rect fill="#FEFECE" height="10" style="stroke:#A80036;stroke-width:1.5;" width="15" x="167.5" y="46"/><rect fill="#FEFECE" height="2" style="stroke:#A80036;stroke-width:1.5;" width="4" x="165.5" y="48"/><rect fill="#FEFECE" height="2" style="stroke:#A80036;stroke-width:1.5;" width="4" x="165.5" y="52"/><text fill="#000000" font-family="sans-serif" font-size="14" lengthAdjust="spacing" textLength="115" x="47.5" y="73.9951">First Component</text><!--MD5=[b9d11f23832c1491231c5b33e55ab8c6]
entity Another Component--><rect fill="#FEFECE" filter="url(#f1p13gs7k4wi00)" height="46.2969" style="stroke:#A80036;stroke-width:1.5;" width="181" x="276.5" y="41"/><rect fill="#FEFECE" height="10" style="stroke:#A80036;stroke-width:1.5;" width="15" x="437.5" y="46"/><rect fill="#FEFECE" height="2" style="stroke:#A80036;stroke-width:1.5;" width="4" x="435.5" y="48"/><rect fill="#FEFECE" height="2" style="stroke:#A80036;stroke-width:1.5;" width="4" x="435.5" y="52"/><text fill="#000000" font-family="sans-serif" font-size="14" lengthAdjust="spacing" textLength="141" x="291.5" y="73.9951">Another Component</text><!--MD5=[76af18d92d7d7c0f7ebd8f4f605ac5aa]
entity FTP--><ellipse cx="73" cy="190" fill="#FEFECE" filter="url(#f1p13gs7k4wi00)" rx="8" ry="8" style="stroke:#A80036;stroke-width:1.5;"/><text fill="#000000" font-family="sans-serif" font-size="14" lengthAdjust="spacing" textLength="26" x="60" y="219.9951">FTP</text><!--MD5=[0e2cc1aee2c7f52697e111b4fb84546c]
entity Second Component--><rect fill="#FEFECE" filter="url(#f1p13gs7k4wi00)" height="46.2969" style="stroke:#A80036;stroke-width:1.5;" width="179" x="117.5" y="167"/><rect fill="#FEFECE" height="10" style="stroke:#A80036;stroke-width:1.5;" width="15" x="276.5" y="172"/><rect fill="#FEFECE" height="2" style="stroke:#A80036;stroke-width:1.5;" width="4" x="274.5" y="174"/><rect fill="#FEFECE" height="2" style="stroke:#A80036;stroke-width:1.5;" width="4" x="274.5" y="178"/><text fill="#000000" font-family="sans-serif" font-size="14" lengthAdjust="spacing" textLength="139" x="132.5" y="199.9951">Second Component</text><!--MD5=[243c1e580c31013c48b02624e18b25a7]
entity Example 1--><rect fill="#FEFECE" filter="url(#f1p13gs7k4wi00)" height="46.2969" style="stroke:#A80036;stroke-width:1.5;" width="111" x="352.5" y="167"/><rect fill="#FEFECE" height="10" style="stroke:#A80036;stroke-width:1.5;" width="15" x="443.5" y="172"/><rect fill="#FEFECE" height="2" style="stroke:#A80036;stroke-width:1.5;" width="4" x="441.5" y="174"/><rect fill="#FEFECE" height="2" style="stroke:#A80036;stroke-width:1.5;" width="4" x="441.5" y="178"/><text fill="#000000" font-family="sans-serif" font-size="14" lengthAdjust="spacing" textLength="71" x="367.5" y="199.9951">Example 1</text><!--MD5=[3e0e08c92570480402984701ab5a6d2d]
entity Folder 3--><rect fill="#FEFECE" filter="url(#f1p13gs7k4wi00)" height="46.2969" style="stroke:#A80036;stroke-width:1.5;" width="96" x="360" y="346"/><rect fill="#FEFECE" height="10" style="stroke:#A80036;stroke-width:1.5;" width="15" x="436" y="351"/><rect fill="#FEFECE" height="2" style="stroke:#A80036;stroke-width:1.5;" width="4" x="434" y="353"/><rect fill="#FEFECE" height="2" style="stroke:#A80036;stroke-width:1.5;" width="4" x="434" y="357"/><text fill="#000000" font-family="sans-serif" font-size="14" lengthAdjust="spacing" textLength="56" x="375" y="378.9951">Folder 3</text><!--MD5=[63877ed85df621d134a6c80fb52dad56]
entity Frame 4--><rect fill="#FEFECE" filter="url(#f1p13gs7k4wi00)" height="46.2969" style="stroke:#A80036;stroke-width:1.5;" width="96" x="360" y="467"/><rect fill="#FEFECE" height="10" style="stroke:#A80036;stroke-width:1.5;" width="15" x="436" y="472"/><rect fill="#FEFECE" height="2" style="stroke:#A80036;stroke-width:1.5;" width="4" x="434" y="474"/><rect fill="#FEFECE" height="2" style="stroke:#A80036;stroke-width:1.5;" width="4" x="434" y="478"/><text fill="#000000" font-family="sans-serif" font-size="14" lengthAdjust="spacing" textLength="56" x="375" y="499.9951">Frame 4</text><!--MD5=[46d996859f59e5baf77956ce93023cee]
link HTTP to First Component--><path d="M223,64 C211.22,64 199.45,64 187.68,64 " fill="none" id="HTTP-First Component" style="stroke:#A80036;stroke-width:1.0;"/><!--MD5=[1966a42bb49d59057147dbda06282f4b]
link FTP to Second Component--><path d="M82.16,190 C93.86,190 105.57,190 117.27,190 " fill="none" id="FTP-Second Component" style="stroke:#A80036;stroke-width:1.0;"/><!--MD5=[d3aefbd8005e27b21e7ce98ddd948193]
link First Component to FTP--><path d="M103.39,87.17 C95.68,112.98 83.21,154.78 76.91,175.9 " fill="none" id="First Component-to-FTP" style="stroke:#A80036;stroke-width:1.0;"/><polygon fill="#A80036" points="75.45,180.8,81.8777,173.3377,76.8933,176.0128,74.2182,171.0285,75.45,180.8" style="stroke:#A80036;stroke-width:1.0;"/><!--MD5=[efc1ffe8b578a0fb156c7bce303319bb]
link Another Component to Example 1--><path d="M374.33,87.17 C381.23,108.02 391.57,139.3 398.97,161.69 " fill="none" id="Another Component-to-Example 1" style="stroke:#A80036;stroke-width:1.0;"/><polygon fill="#A80036" points="400.6,166.61,401.5752,156.8095,399.0317,161.8623,393.9789,159.3188,400.6,166.61" style="stroke:#A80036;stroke-width:1.0;"/><!--MD5=[7ec8393a78a133520e8846dd05a7857a]
link Example 1 to Folder 3--><path d="M408,213.06 C408,245.34 408,305.42 408,340.53 " fill="none" id="Example 1-to-Folder 3" style="stroke:#A80036;stroke-width:1.0;"/><polygon fill="#A80036" points="408,345.94,412,336.94,408,340.94,404,336.94,408,345.94" style="stroke:#A80036;stroke-width:1.0;"/><!--MD5=[b96c7096199393c1414a8b4e9ed2c30f]
link Folder 3 to Frame 4--><path d="M408,392.1 C408,411.68 408,440.35 408,461.43 " fill="none" id="Folder 3-to-Frame 4" style="stroke:#A80036;stroke-width:1.0;"/><polygon fill="#A80036" points="408,466.61,412,457.61,408,461.61,404,457.61,408,466.61" style="stroke:#A80036;stroke-width:1.0;"/><!--MD5=[1e4693880b8478e006b88ad6f01746ed]
@startuml
'https://plantuml.com/component-diagram


package "Some Group" {
  HTTP - [First Component]
  [Another Component]
}

node "Other Groups" {
  FTP - [Second Component]
  [First Component] - -> FTP
}

cloud {
  [Example 1]
}


database "MySql" {
  folder "This is my folder" {
    [Folder 3]
  }
  frame "Foo" {
    [Frame 4]
  }
}


[Another Component] - -> [Example 1]
[Example 1] - -> [Folder 3]
[Folder 3] - -> [Frame 4]

@enduml

@startuml


package "Some Group" {
  HTTP - [First Component]
  [Another Component]
}

node "Other Groups" {
  FTP - [Second Component]
  [First Component] - -> FTP
}

cloud {
  [Example 1]
}


database "MySql" {
  folder "This is my folder" {
    [Folder 3]
  }
  frame "Foo" {
    [Frame 4]
  }
}


[Another Component] - -> [Example 1]
[Example 1] - -> [Folder 3]
[Folder 3] - -> [Frame 4]

@enduml

PlantUML version 1.2021.4(Sun Apr 04 08:49:39 UTC 2021)
(GPL source distribution)
Java Runtime: OpenJDK Runtime Environment
JVM: OpenJDK 64-Bit Server VM
Default Encoding: UTF-8
Language: en
Country: null
--></g></svg>